<?xml version="1.0" encoding="UTF-8" standalone="no"?>
<!-- Generator: Adobe Illustrator 19.0.0, SVG Export Plug-In . SVG Version: 6.00 Build 0)  -->

<!-- License: CC0. Made by undefinedSVG Repo -->

<svg
   version="1.1"
   id="Layer_1"
   x="0px"
   y="0px"
   viewBox="0 0 504.123 504.123"
   style="enable-background:new 0 0 504.123 504.123;"
   xml:space="preserve"
   sodipodi:docname="av1b.svg"
   inkscape:version="1.2.2 (b0a84865, 2022-12-01)"
   xmlns:inkscape="http://www.inkscape.org/namespaces/inkscape"
   xmlns:sodipodi="http://sodipodi.sourceforge.net/DTD/sodipodi-0.dtd"
   xmlns="http://www.w3.org/2000/svg"
   xmlns:svg="http://www.w3.org/2000/svg"><defs
   id="defs392"><radialGradient
     id="SvgjsRadialGradient2907"
     cx="100"
     cy="114"
     r="41"
     gradientUnits="userSpaceOnUse"
     class="svga-on-canvas-facehighlight-gradient-single-0"><stop
       id="SvgjsStop2908"
       stop-opacity="0.5"
       stop-color="#ffe2d6"
       offset="0" /><stop
       id="SvgjsStop2909"
       stop-opacity="0"
       stop-color="#ffd0bc"
       offset="0.9" /></radialGradient><radialGradient
     id="SvgjsRadialGradient2911"
     cx="100"
     cy="54"
     r="37"
     gradientUnits="userSpaceOnUse"
     class="svga-on-canvas-facehighlight-gradient-single-1"><stop
       id="SvgjsStop2912"
       stop-opacity="0.5"
       stop-color="#ffe2d6"
       offset="0" /><stop
       id="SvgjsStop2913"
       stop-opacity="0"
       stop-color="#ffd0bc"
       offset="0.9" /></radialGradient><radialGradient
     id="SvgjsRadialGradient4170"
     cx="100"
     cy="225"
     r="250"
     gradientUnits="userSpaceOnUse"
     class="svga-on-canvas-backs-gradient-single-1"><stop
       id="SvgjsStop4171"
       stop-opacity="0"
       stop-color="#ecf0f1"
       offset="0" /><stop
       id="SvgjsStop4172"
       stop-opacity="1"
       stop-color="#c6dce2"
       offset="1" /></radialGradient><radialGradient
     id="SvgjsRadialGradient4176"
     cx="125.903"
     cy="85.096"
     r="13.25"
     gradientTransform="matrix(-1.0996,0.0423,0.0635,0.9207,206.5488,0.5932)"
     gradientUnits="userSpaceOnUse"
     class="svga-on-canvas-eyesback-gradient-left-0"><stop
       id="SvgjsStop4177"
       stop-opacity="1"
       stop-color="#ffffff"
       offset="0" /><stop
       id="SvgjsStop4178"
       stop-opacity="1"
       stop-color="#fdfefe"
       offset="0.544" /><stop
       id="SvgjsStop4179"
       stop-opacity="1"
       stop-color="#f6f8f9"
       offset="0.74" /><stop
       id="SvgjsStop4180"
       stop-opacity="1"
       stop-color="#eaeff2"
       offset="0.879" /><stop
       id="SvgjsStop4181"
       stop-opacity="1"
       stop-color="#d9e3e8"
       offset="0.992" /><stop
       id="SvgjsStop4182"
       stop-opacity="1"
       stop-color="#d8e2e7"
       offset="1" /></radialGradient><radialGradient
     id="SvgjsRadialGradient4184"
     cx="125.541"
     cy="85.113"
     r="13.249"
     gradientTransform="matrix(1.0996,0.0423,-0.0635,0.9207,-6.5488,0.5932)"
     gradientUnits="userSpaceOnUse"
     class="svga-on-canvas-eyesback-gradient-right-0"><stop
       id="SvgjsStop4185"
       stop-opacity="1"
       stop-color="#ffffff"
       offset="0" /><stop
       id="SvgjsStop4186"
       stop-opacity="1"
       stop-color="#fdfefe"
       offset="0.544" /><stop
       id="SvgjsStop4187"
       stop-opacity="1"
       stop-color="#f6f8f9"
       offset="0.74" /><stop
       id="SvgjsStop4188"
       stop-opacity="1"
       stop-color="#eaeff2"
       offset="0.879" /><stop
       id="SvgjsStop4189"
       stop-opacity="1"
       stop-color="#d9e3e8"
       offset="0.992" /><stop
       id="SvgjsStop4190"
       stop-opacity="1"
       stop-color="#d8e2e7"
       offset="1" /></radialGradient><radialGradient
     id="SvgjsRadialGradient4192"
     cx="125.903"
     cy="85.096"
     r="13.25"
     gradientTransform="matrix(-1.0996 0.0423 0.0635 0.9207 206.5488 0.5932)"
     gradientUnits="userSpaceOnUse"
     class="svga-on-canvas-eyesfront-gradient-left-0"><stop
       id="SvgjsStop4193"
       stop-opacity="1"
       stop-color="#ffffff"
       offset="0" /><stop
       id="SvgjsStop4194"
       stop-opacity="1"
       stop-color="#fdfefe"
       offset="0.544" /><stop
       id="SvgjsStop4195"
       stop-opacity="1"
       stop-color="#f6f8f9"
       offset="0.74" /><stop
       id="SvgjsStop4196"
       stop-opacity="1"
       stop-color="#eaeff2"
       offset="0.879" /><stop
       id="SvgjsStop4197"
       stop-opacity="1"
       stop-color="#d9e3e8"
       offset="0.992" /><stop
       id="SvgjsStop4198"
       stop-opacity="1"
       stop-color="#d8e2e7"
       offset="1" /></radialGradient><radialGradient
     id="SvgjsRadialGradient4202"
     cx="123.371"
     cy="81.442"
     fx="136.805"
     fy="80.36"
     r="17.038"
     gradientTransform="matrix(0.9884,0.1367,0.1336,-0.7354,-56.0677,125.3)"
     gradientUnits="userSpaceOnUse"
     class="svga-on-canvas-eyesfront-gradient-left-3"><stop
       id="SvgjsStop4203"
       stop-opacity="1"
       stop-color="#f0b399"
       offset="0" /><stop
       id="SvgjsStop4204"
       stop-opacity="0.3"
       stop-color="#f0b399"
       offset="0.7" /><stop
       id="SvgjsStop4205"
       stop-opacity="0"
       stop-color="#ffd0bc"
       offset="1" /></radialGradient><radialGradient
     id="SvgjsRadialGradient4207"
     cx="78.965"
     cy="81.143"
     r="26.237"
     gradientTransform="matrix(0.7183,-0.06,0.0803,0.6143,8.7915,49.2595)"
     gradientUnits="userSpaceOnUse"
     class="svga-on-canvas-eyesfront-gradient-left-4"><stop
       id="SvgjsStop4208"
       stop-opacity="0"
       stop-color="#000000"
       offset="0.95" /><stop
       id="SvgjsStop4209"
       stop-opacity="0.2"
       stop-color="#000000"
       offset="1" /></radialGradient><radialGradient
     id="SvgjsRadialGradient4213"
     cx="125.541"
     cy="85.113"
     r="13.249"
     gradientTransform="matrix(1.0996 0.0423 -0.0635 0.9207 -6.5488 0.5932)"
     gradientUnits="userSpaceOnUse"
     class="svga-on-canvas-eyesfront-gradient-right-0"><stop
       id="SvgjsStop4214"
       stop-opacity="1"
       stop-color="#ffffff"
       offset="0" /><stop
       id="SvgjsStop4215"
       stop-opacity="1"
       stop-color="#fdfefe"
       offset="0.544" /><stop
       id="SvgjsStop4216"
       stop-opacity="1"
       stop-color="#f6f8f9"
       offset="0.74" /><stop
       id="SvgjsStop4217"
       stop-opacity="1"
       stop-color="#eaeff2"
       offset="0.879" /><stop
       id="SvgjsStop4218"
       stop-opacity="1"
       stop-color="#d9e3e8"
       offset="0.992" /><stop
       id="SvgjsStop4219"
       stop-opacity="1"
       stop-color="#d8e2e7"
       offset="1" /></radialGradient><radialGradient
     id="SvgjsRadialGradient4223"
     cx="122.972"
     cy="81.425"
     fx="136.406"
     fy="80.344"
     r="17.037"
     gradientTransform="matrix(-0.9884,0.1367,-0.1336,-0.7354,255.271,125.3424)"
     gradientUnits="userSpaceOnUse"
     class="svga-on-canvas-eyesfront-gradient-right-3"><stop
       id="SvgjsStop4224"
       stop-opacity="1"
       stop-color="#f0b399"
       offset="0" /><stop
       id="SvgjsStop4225"
       stop-opacity="0.3"
       stop-color="#f0b399"
       offset="0.7" /><stop
       id="SvgjsStop4226"
       stop-opacity="0"
       stop-color="#ffd0bc"
       offset="1" /></radialGradient><radialGradient
     id="SvgjsRadialGradient4228"
     cx="79.515"
     cy="81.186"
     r="26.237"
     gradientTransform="matrix(-0.7183,-0.06,-0.0803,0.6143,191.2076,49.2665)"
     gradientUnits="userSpaceOnUse"
     class="svga-on-canvas-eyesfront-gradient-right-4"><stop
       id="SvgjsStop4229"
       stop-opacity="0"
       stop-color="#000000"
       offset="0.95" /><stop
       id="SvgjsStop4230"
       stop-opacity="0.2"
       stop-color="#000000"
       offset="1" /></radialGradient><radialGradient
     id="SvgjsRadialGradient4288"
     cx="-568.659"
     cy="-521.042"
     r="59.751"
     gradientTransform="matrix(0.096,-0.0248,0.0245,0.0961,141.2814,119.9893)"
     gradientUnits="userSpaceOnUse"
     class="svga-on-canvas-eyesiris-gradient-left-1"><stop
       id="SvgjsStop4289"
       stop-opacity="1"
       stop-color="#ffffff"
       offset="0" /><stop
       id="SvgjsStop4290"
       stop-opacity="0"
       stop-color="#ffffff"
       offset="1" /></radialGradient><radialGradient
     id="SvgjsRadialGradient4292"
     cx="-582.838"
     cy="-519.099"
     r="59.745"
     gradientTransform="matrix(0.0991,8.856319e-4,-0.0011,0.0991,131.1134,135.9855)"
     gradientUnits="userSpaceOnUse"
     class="svga-on-canvas-eyesiris-gradient-left-2"><stop
       id="SvgjsStop4293"
       stop-opacity="1"
       stop-color="#ffffff"
       offset="0" /><stop
       id="SvgjsStop4294"
       stop-opacity="0"
       stop-color="#ffffff"
       offset="1" /></radialGradient><linearGradient
     id="SvgjsLinearGradient4298"
     x1="122.67"
     y1="88.268"
     x2="123.606"
     y2="87.152"
     gradientTransform="translate(-52)"
     gradientUnits="userSpaceOnUse"
     class="svga-on-canvas-eyesiris-gradient-left-5"><stop
       id="SvgjsStop4299"
       stop-opacity="1"
       stop-color="#ffffff"
       offset="0" /><stop
       id="SvgjsStop4300"
       stop-opacity="0"
       stop-color="#ffffff"
       offset="1" /></linearGradient><linearGradient
     id="SvgjsLinearGradient4302"
     x1="127.212"
     y1="82.296"
     x2="126.463"
     y2="83.189"
     gradientTransform="translate(-52)"
     gradientUnits="userSpaceOnUse"
     class="svga-on-canvas-eyesiris-gradient-left-6"><stop
       id="SvgjsStop4303"
       stop-opacity="1"
       stop-color="#ffffff"
       offset="0" /><stop
       id="SvgjsStop4304"
       stop-opacity="0"
       stop-color="#ffffff"
       offset="1" /></linearGradient><linearGradient
     id="SvgjsLinearGradient4306"
     x1="129.636"
     y1="79.822"
     x2="127.91"
     y2="81.879"
     gradientTransform="translate(-52)"
     gradientUnits="userSpaceOnUse"
     class="svga-on-canvas-eyesiris-gradient-left-7"><stop
       id="SvgjsStop4307"
       stop-opacity="1"
       stop-color="#ffffff"
       offset="0" /><stop
       id="SvgjsStop4308"
       stop-opacity="0"
       stop-color="#ffffff"
       offset="1" /></linearGradient><radialGradient
     id="SvgjsRadialGradient4311"
     cx="-568.654"
     cy="-521.042"
     r="59.752"
     gradientTransform="matrix(0.096,-0.0248,0.0245,0.0961,193.2804,119.9894)"
     gradientUnits="userSpaceOnUse"
     class="svga-on-canvas-eyesiris-gradient-right-1"><stop
       id="SvgjsStop4312"
       stop-opacity="1"
       stop-color="#ffffff"
       offset="0" /><stop
       id="SvgjsStop4313"
       stop-opacity="0"
       stop-color="#ffffff"
       offset="1" /></radialGradient><radialGradient
     id="SvgjsRadialGradient4315"
     cx="-582.833"
     cy="-519.102"
     r="59.747"
     gradientTransform="matrix(0.0991,8.856319e-4,-0.0011,0.0991,183.1126,135.9856)"
     gradientUnits="userSpaceOnUse"
     class="svga-on-canvas-eyesiris-gradient-right-2"><stop
       id="SvgjsStop4316"
       stop-opacity="1"
       stop-color="#ffffff"
       offset="0" /><stop
       id="SvgjsStop4317"
       stop-opacity="0"
       stop-color="#ffffff"
       offset="1" /></radialGradient><linearGradient
     id="SvgjsLinearGradient4321"
     x1="122.67"
     y1="88.268"
     x2="123.606"
     y2="87.152"
     gradientUnits="userSpaceOnUse"
     class="svga-on-canvas-eyesiris-gradient-right-5"><stop
       id="SvgjsStop4322"
       stop-opacity="1"
       stop-color="#ffffff"
       offset="0" /><stop
       id="SvgjsStop4323"
       stop-opacity="0"
       stop-color="#ffffff"
       offset="1" /></linearGradient><linearGradient
     id="SvgjsLinearGradient4325"
     x1="127.212"
     y1="82.296"
     x2="126.463"
     y2="83.189"
     gradientUnits="userSpaceOnUse"
     class="svga-on-canvas-eyesiris-gradient-right-6"><stop
       id="SvgjsStop4326"
       stop-opacity="1"
       stop-color="#ffffff"
       offset="0" /><stop
       id="SvgjsStop4327"
       stop-opacity="0"
       stop-color="#ffffff"
       offset="1" /></linearGradient><linearGradient
     id="SvgjsLinearGradient4329"
     x1="129.636"
     y1="79.822"
     x2="127.91"
     y2="81.879"
     gradientUnits="userSpaceOnUse"
     class="svga-on-canvas-eyesiris-gradient-right-7"><stop
       id="SvgjsStop4330"
       stop-opacity="1"
       stop-color="#ffffff"
       offset="0" /><stop
       id="SvgjsStop4331"
       stop-opacity="0"
       stop-color="#ffffff"
       offset="1" /></linearGradient><linearGradient
     id="SvgjsLinearGradient4350"
     x1="100"
     y1="172"
     x2="100"
     y2="133"
     gradientUnits="userSpaceOnUse"
     class="svga-on-canvas-chinshadow-gradient-single-0"><stop
       id="SvgjsStop4351"
       stop-opacity="0.8"
       stop-color="#f0b399"
       offset="0" /><stop
       id="SvgjsStop4352"
       stop-opacity="1"
       stop-color="#d17f5b"
       offset="0.7" /></linearGradient><linearGradient
     id="SvgjsLinearGradient4354"
     x1="100"
     y1="142"
     x2="100"
     y2="139"
     gradientUnits="userSpaceOnUse"
     class="svga-on-canvas-mouth-gradient-single-0"><stop
       id="SvgjsStop4355"
       stop-opacity="1"
       stop-color="#f7c1aa"
       offset="0.1" /><stop
       id="SvgjsStop4356"
       stop-opacity="1"
       stop-color="#f0b399"
       offset="1" /></linearGradient></defs><sodipodi:namedview
   id="namedview390"
   pagecolor="#505050"
   bordercolor="#eeeeee"
   borderopacity="1"
   inkscape:showpageshadow="0"
   inkscape:pageopacity="0"
   inkscape:pagecheckerboard="0"
   inkscape:deskcolor="#505050"
   showgrid="false"
   inkscape:zoom="2.0372013"
   inkscape:cx="251.81606"
   inkscape:cy="134.74368"
   inkscape:window-width="1424"
   inkscape:window-height="1027"
   inkscape:window-x="2638"
   inkscape:window-y="168"
   inkscape:window-maximized="0"
   inkscape:current-layer="Layer_1" />
<g
   id="g359"> 
	<path
   style="fill:#232728;"
   d="M351.705,315.242c0,126.33-44.599,84.259-99.643,84.259c-55.028,0-99.643,42.071-99.643-84.259   c0-72.231,44.631-130.788,99.643-130.788C307.09,184.462,351.705,243.019,351.705,315.242z"
   id="path353" />
	<path
   style="fill:#232728;"
   d="M228.218,361.913c0,19.503-15.817,124.668-35.336,124.668c-19.495,0-35.304-105.173-35.304-124.668   c0-19.495,15.817-35.32,35.304-35.32C212.401,326.593,228.218,342.418,228.218,361.913z"
   id="path355" />
	<path
   style="fill:#232728;"
   d="M346.569,361.913c0,19.503-15.817,124.668-35.336,124.668c-19.495,0-35.304-105.173-35.304-124.668   c0-19.495,15.817-35.32,35.304-35.32C330.752,326.593,346.569,342.418,346.569,361.913z"
   id="path357" />
</g>
<path
   style="fill:#8D97A0;"
   d="M232.629,487.219c0,14.935-17.802,16.904-39.739,16.904s-39.739-1.961-39.739-16.904  c0-14.943,17.802-35.509,39.739-35.509S232.629,472.277,232.629,487.219z"
   id="path361" />
<path
   style="fill:#79848C;"
   d="M232.629,487.219c0,14.935-17.802,16.904-39.739,16.904s-39.739-1.961-39.739-16.904"
   id="path363" />
<path
   style="fill:#8D97A0;"
   d="M350.988,487.219c0,14.935-17.802,16.904-39.739,16.904s-39.739-1.961-39.739-16.904  c0-14.943,17.802-35.509,39.739-35.509S350.988,472.277,350.988,487.219z"
   id="path365" />
<path
   style="fill:#79848C;"
   d="M350.988,487.219c0,14.935-17.802,16.904-39.739,16.904s-39.739-1.961-39.739-16.904"
   id="path367" />
<g
   id="g373">
	<path
   style="fill:#232728;"
   d="M241.073,203.768c10.027,11.28,3.663,33.304-14.218,49.223   c-17.881,15.896-114.018,85.024-124.062,73.767c-10.012-11.296,69.892-98.714,87.773-114.609   C208.431,196.254,231.046,192.496,241.073,203.768z"
   id="path369" />
	<path
   style="fill:#232728;"
   d="M263.05,203.768c-10.027,11.28-3.663,33.304,14.218,49.223   c17.881,15.896,114.018,85.024,124.062,73.767c10.012-11.296-69.892-98.714-87.773-114.609   C295.692,196.254,273.077,192.496,263.05,203.768z"
   id="path371" />
</g>
<rect
   x="231.385"
   y="199.546"
   style="fill:#E2DED3;"
   width="41.354"
   height="141.131"
   id="rect375" />
<path
   style="fill:#C6BFAF;"
   d="M231.385,233.669c6.751,0.622,13.627,1.024,20.693,1.024c7.05,0,13.926-0.402,20.661-1.024v-34.123  h-41.354V233.669z"
   id="path377" />
<polygon
   style="fill:#444849;"
   points="258.182,218.577 268.43,322.465 252.062,334.36 235.693,322.465 245.949,218.577 "
   id="polygon379" />
<polyline
   style="fill:#232728;"
   points="245.949,218.577 258.182,218.577 268.43,322.465 252.062,334.36 "
   id="polyline381" />



<path
   style="fill:#8D97A0;"
   d="M272.935,355.454c0,5.254-4.261,9.515-9.523,9.515h-22.307c-5.262,0-9.523-4.261-9.523-9.515l0,0  c0-5.262,4.261-9.523,9.523-9.523h22.307C268.674,345.931,272.935,350.192,272.935,355.454L272.935,355.454z"
   id="path383" />
<path
   style="fill:#A7B1B7;"
   d="M263.412,345.931h-22.307c-4.348,0-7.861,2.962-9.003,6.94c1.142,3.97,4.655,6.932,9.003,6.932  h22.307c4.348,0,7.861-2.962,9.003-6.932C271.273,348.893,267.76,345.931,263.412,345.931z"
   id="path385" />
<path
   style="fill:#E2DED3;"
   d="M315.605,266.508c0,1.457-1.174,2.623-2.623,2.623h-25.6c-1.449,0-2.615-1.166-2.615-2.623l0,0  c0-1.457,1.166-2.623,2.615-2.623h25.6C314.431,263.885,315.605,265.051,315.605,266.508L315.605,266.508z"
   id="path387" />
<g
   style="overflow:hidden"
   id="g773"
   transform="matrix(1.242099,0,0,1.242099,127.09899,12.560016)"><g
     id="svga-group-wrapper"><g
       id="svga-group-backs-single" /><g
       id="svga-group-humanwrap-move"><g
         id="svga-group-humanwrap"><g
           id="svga-group-hair-back-move"><g
             id="svga-group-hair-back"><path
               id="SvgjsPath4162"
               d="m 100.5,100.5 h -1 v -1 h 1 z"
               fill="#2a232b"
               stroke-width="none"
               opacity="1"
               stroke="none" /></g></g><g
           id="svga-group-head"><g
             id="svga-group-ears-left-move"><g
               id="svga-group-ears-left"><path
                 id="SvgjsPath2927"
                 d="M 45.671,84.344 C 44.186,81.882 39.344,75.145 35.64,76.09 c -3.012,0.772 -2.973,4.971 -3.206,7.455 -0.34,3.644 -0.464,9.992 0.525,12.568 0.951,2.473 3.96,7.252 5.828,9.075 2.299,2.235 5.97,9.358 6.422,10.097 0.711,1.168 2.137,2.84 4.325,2.708 3.071,-0.185 5.724,-3.087 5.965,-4.485 1.301,-7.59 -5.963,-22.758 -9.828,-29.164 z"
                 fill="#ffd0bc"
                 stroke="#d17f5b"
                 stroke-width="1.5"
                 opacity="1" /><path
                 id="SvgjsPath2928"
                 d="m 44.2,99.341 c -0.143,-0.563 0.007,-1.513 0.154,-2.429 0.133,-0.835 0.258,-1.624 0.182,-2.182 -0.289,-2.09 -1.915,-6.06 -2.976,-8.212 -1.223,-2.476 -3.199,-5.595 -5.679,-6.399 -1.024,-0.333 -1.699,0.065 -2.089,0.468 -0.288,0.296 -0.353,0.645 -0.259,0.687 0.095,0.041 0.307,-0.248 0.617,-0.519 0.254,-0.222 -0.508,-0.04 0,0 -0.205,1.04 -0.865,6.302 -0.41,10.143 0.358,3.022 1.05,5.279 1.263,5.617 0.031,0.356 0.083,0.705 0.16,1.043 1.002,4.41 7.518,10.177 9.034,11.82 0.28,0.303 0.574,0.483 0.646,0.409 0.072,-0.074 -0.101,-0.373 -0.379,-0.678 -1.498,-1.632 -7.971,-7.381 -8.939,-11.635 -1.027,-4.514 3.912,-11.207 4.699,-12.623 0.401,0.665 0.742,1.303 1.004,1.835 0.207,0.417 0.434,0.906 0.67,1.435 -0.463,0.738 -5.118,6.127 -3.934,10.441 0.438,1.591 3.822,3.642 5.131,4.203 0.72,0.31 0.99,0.772 1.304,1.306 0.364,0.624 0.033,2.229 1.23,2.739 0.244,0.104 0.464,0.146 0.659,0.146 0.338,0 0.594,-0.13 0.783,-0.284 0.02,0.271 0.019,0.619 0.009,0.941 -0.012,0.418 0.047,0.609 0.148,0.617 0.103,0.009 0.21,-0.174 0.223,-0.587 0.017,-0.51 0.014,-1.141 -0.077,-1.444 -0.269,-0.889 -1.088,-1.894 -1.957,-2.957 -0.854,-1.045 -0.995,-3.029 -1.217,-3.901 z m -9.231,-3.909 c -2.348,-6.923 1.283,-13.229 1.81,-14.179 1.012,0.399 2.562,2.193 3.221,3.235 -0.48,0.833 -4.933,6.287 -5.031,10.944 z m 10.803,11.032 c -1.084,-0.462 -0.706,-1.984 -1.056,-2.584 -0.318,-0.542 -0.646,-1.102 -1.479,-1.46 -0.18,-0.078 -0.379,-0.196 -0.583,-0.332 -2.682,-6.075 0.293,-8.73 1.039,-9.273 0.229,0.742 0.399,1.423 0.476,1.97 0.068,0.5 -0.059,1.298 -0.181,2.068 -0.153,0.955 -0.31,1.944 -0.147,2.584 0.244,0.953 0.411,2.97 1.291,4.048 0.781,0.956 1.583,1.942 1.857,2.746 -0.118,0.16 -0.489,0.544 -1.217,0.233 z"
                 fill="#d17f5b"
                 stroke-width="none"
                 opacity="1"
                 stroke="none" /></g></g><g
             id="svga-group-ears-right-move"><g
               id="svga-group-ears-right"><path
                 id="SvgjsPath2929"
                 d="m 154.066,84.344 c 1.486,-2.462 6.328,-9.199 10.031,-8.254 3.012,0.772 2.973,4.971 3.207,7.455 0.34,3.644 0.463,9.992 -0.525,12.568 -0.951,2.473 -3.961,7.252 -5.828,9.075 -2.299,2.235 -5.971,9.358 -6.422,10.097 -0.711,1.168 -2.137,2.84 -4.326,2.708 -3.07,-0.185 -5.723,-3.087 -5.965,-4.485 -1.3,-7.59 5.965,-22.758 9.828,-29.164 z"
                 fill="#ffd0bc"
                 stroke="#d17f5b"
                 stroke-width="1.5"
                 opacity="1" /><path
                 id="SvgjsPath2930"
                 d="m 154.322,103.243 c -0.869,1.063 -1.688,2.068 -1.957,2.957 -0.092,0.304 -0.094,0.935 -0.078,1.444 0.014,0.413 0.121,0.596 0.225,0.587 0.102,-0.008 0.16,-0.199 0.148,-0.617 -0.01,-0.322 -0.012,-0.67 0.008,-0.941 0.189,0.154 0.445,0.284 0.783,0.284 0.195,0 0.416,-0.042 0.66,-0.146 1.195,-0.511 0.865,-2.116 1.229,-2.739 0.314,-0.534 0.584,-0.997 1.305,-1.306 1.309,-0.561 4.693,-2.611 5.131,-4.203 1.184,-4.314 -3.471,-9.704 -3.934,-10.441 0.234,-0.529 0.463,-1.018 0.668,-1.435 0.264,-0.532 0.604,-1.171 1.006,-1.835 0.787,1.416 5.725,8.108 4.699,12.623 -0.969,4.254 -7.441,10.003 -8.939,11.635 -0.279,0.305 -0.453,0.604 -0.381,0.678 0.074,0.074 0.367,-0.106 0.646,-0.409 1.516,-1.643 8.031,-7.41 9.033,-11.82 0.078,-0.338 0.131,-0.687 0.162,-1.043 0.211,-0.337 0.904,-2.594 1.262,-5.617 0.455,-3.841 -0.205,-9.103 -0.41,-10.143 0.508,-0.04 -0.254,-0.222 0,0 0.311,0.271 0.523,0.56 0.617,0.519 0.094,-0.042 0.029,-0.39 -0.258,-0.687 -0.391,-0.403 -1.066,-0.801 -2.09,-0.468 -2.48,0.804 -4.457,3.923 -5.68,6.399 -1.061,2.152 -2.686,6.122 -2.975,8.212 -0.076,0.558 0.049,1.347 0.182,2.182 0.146,0.916 0.297,1.866 0.154,2.429 -0.222,0.871 -0.362,2.855 -1.216,3.901 z m 5.416,-18.755 c 0.66,-1.042 2.209,-2.835 3.221,-3.235 0.527,0.95 4.158,7.256 1.811,14.179 -0.098,-4.657 -4.551,-10.111 -5.032,-10.944 z m -6.988,21.741 c 0.273,-0.804 1.076,-1.79 1.857,-2.746 0.879,-1.078 1.047,-3.095 1.291,-4.048 0.162,-0.64 0.006,-1.629 -0.146,-2.584 -0.123,-0.77 -0.25,-1.568 -0.182,-2.068 0.076,-0.547 0.246,-1.228 0.475,-1.97 0.746,0.543 3.721,3.199 1.039,9.273 -0.203,0.136 -0.402,0.254 -0.584,0.332 -0.832,0.358 -1.16,0.918 -1.479,1.46 -0.35,0.6 0.029,2.123 -1.055,2.584 -0.728,0.313 -1.099,-0.071 -1.216,-0.233 z"
                 fill="#d17f5b"
                 stroke-width="none"
                 opacity="1"
                 stroke="none" /></g></g><g
             id="svga-group-faceshape-wrap"><g
               id="svga-group-faceshape-single"><path
                 id="SvgjsPath4346"
                 d="m 158.918,78.006 h -0.005 c -0.012,0.054 -9.983,41.375 -18.186,54.159 -6.452,10.056 -28.899,29.684 -40.573,29.701 C 88.483,161.887 65.984,142.327 59.502,132.29 51.26,119.532 41.149,78.248 41.137,78.194 H 41.136 C 39.838,73.202 39.142,67.963 39.134,62.56 39.082,28.536 66.289,0.92 99.907,0.867 c 33.621,-0.053 60.913,27.476 60.963,61.499 0.009,5.403 -0.669,10.644 -1.952,15.64 z"
                 fill="#ffd0bc"
                 stroke-width="none"
                 opacity="1" /><path
                 id="SvgjsPath4347"
                 d="m 124.597,6.119 c 18.568,10.001 31.371,30.966 31.404,55.247 0.008,5.403 -0.616,10.644 -1.796,15.641 H 154.2 c -0.011,0.054 -9.185,41.375 -16.73,54.159 -5.937,10.056 -26.588,29.684 -37.327,29.701 -10.737,0.021 -31.437,-19.539 -37.4,-29.576 C 55.161,118.533 45.858,77.249 45.847,77.195 H 45.846 C 44.651,72.203 44.011,66.964 44.004,61.561 43.969,37.217 56.775,16.161 75.391,6.126 54.006,15.706 39.096,37.37 39.134,62.56 c 0.008,5.403 0.704,10.643 2.002,15.634 h 10e-4 c 0.012,0.054 10.123,41.338 18.365,54.096 6.482,10.037 28.981,29.597 40.652,29.576 11.673,-0.018 34.121,-19.646 40.573,-29.701 8.202,-12.784 18.174,-54.105 18.186,-54.159 h 0.005 c 1.283,-4.997 1.961,-10.237 1.952,-15.641 C 160.833,37.238 145.928,15.667 124.597,6.119 Z"
                 fill="#f7c1aa"
                 stroke-width="none"
                 opacity="1" /><path
                 id="SvgjsPath4348"
                 d="m 158.918,78.006 h -0.005 c -0.012,0.054 -9.983,41.375 -18.186,54.159 -6.452,10.056 -28.899,29.684 -40.573,29.701 C 88.483,161.887 65.984,142.327 59.502,132.29 51.26,119.532 41.149,78.248 41.137,78.194 H 41.136 C 39.838,73.202 39.142,67.963 39.134,62.56 39.082,28.536 66.289,0.92 99.907,0.867 c 33.621,-0.053 60.913,27.476 60.963,61.499 0.009,5.403 -0.669,10.644 -1.952,15.64 z"
                 fill="none"
                 stroke="#d17f5b"
                 stroke-width="1.5"
                 opacity="1" /></g></g><g
             id="svga-group-mouth-single-move"><g
               id="svga-group-mouth-single"><path
                 id="SvgjsPath4353"
                 d="m 96.227,139.237 8.297,-0.207 c -0.961,4.47 -7.64,3.828 -8.297,0.207 z"
                 fill="url(#SvgjsLinearGradient4354)"
                 opacity="1"
                 style="fill:url(#SvgjsLinearGradient4354)" /><path
                 id="SvgjsPath4357"
                 d="m 96.343,139.52 c -0.371,-0.05 -0.315,-0.579 0.08,-0.542 0.043,0.006 4.308,0.546 7.878,-0.215 0.386,-0.075 0.5,0.455 0.13,0.534 -2.797,0.598 -6.416,0.458 -8.088,0.223 z m 3.74,-3.57 c -1.503,0 -2.96,-0.521 -4.424,-0.776 -1.64,-0.287 -3.274,-0.041 -4.915,0.104 -1.676,0.149 -5.333,-0.013 -6.365,-0.666 -0.578,-0.367 -0.47,-1.221 0.181,-1.449 0.614,-0.22 1.571,0.236 2.191,0.347 2.872,0.515 4.384,-0.034 6.902,-0.118 3.851,-0.116 4.26,1.501 9.064,0.53 5.165,-1.044 7.491,-0.254 11.197,-1.37 0.508,-0.154 1.112,-0.56 1.645,-0.286 0.615,0.318 0.585,1.185 -0.049,1.464 -3.406,1.502 -7.174,0.895 -10.955,1.526 -1.482,0.246 -2.959,0.694 -4.472,0.694 z"
                 fill="#d17f5b"
                 stroke-width="none"
                 opacity="1" /></g></g><g
             id="svga-group-eyes-left-move"><g
               id="svga-group-eyes-left"><g
                 id="svga-group-eyesback-left"><path
                   id="SvgjsPath4175"
                   d="m 76.732,78.383 c 4.587,0.679 7.931,3.488 10.773,7.94 0.004,0.005 0.013,0.004 0.018,0.008 0.007,0.027 0.021,0.053 0.026,0.08 0.255,1.007 -0.816,1.819 -2.155,2.438 -4.771,0.609 -9.359,1.489 -14.194,0.87 -9.681,-1.241 -9.855,-5.509 -10.326,-6.629 -0.252,-1.101 -0.325,-1.417 -0.311,-2.473 2.332,-1.366 4.043,-1.647 5.854,-2.005 2.124,-0.418 6.851,-0.744 10.315,-0.229 z"
                   fill="url(#SvgjsRadialGradient4176)"
                   opacity="1"
                   style="fill:url(#SvgjsRadialGradient4176)" /></g><g
                 id="svga-group-eyesiriswrapper-left"
                 transform="translate(0.25)"><g
                   id="svga-group-eyesiriscontrol-left"><g
                     id="svga-group-eyesiris-left"><path
                       id="SvgjsPath4286"
                       d="m 80,84 c 0,3.313 -2.687,6 -6,6 -3.313,0 -6,-2.687 -6,-6 v 0 c 0,-3.314 2.687,-6 6,-6 3.313,-0.001 6,2.686 6,6 z"
                       fill="#4d3623"
                       stroke-width="none"
                       opacity="1" /><path
                       id="SvgjsPath4287"
                       d="m 73.328,78.066 c -0.023,0.003 -0.047,0.006 -0.071,0.009 0.029,0.135 0.057,0.271 0.085,0.406 -0.006,-0.137 -0.009,-0.277 -0.014,-0.415 z m 0.013,0.414 c 0.07,1.972 0.185,3.729 0.517,4.364 0.175,-0.696 -0.123,-2.43 -0.517,-4.364 z m 0.518,4.365 c -0.043,0.167 -0.108,0.281 -0.208,0.319 -0.1,0.038 -0.226,-0.006 -0.368,-0.103 0.041,0.167 0.037,0.297 -0.036,0.378 -0.072,0.081 -0.201,0.101 -0.373,0.078 0.113,0.13 0.171,0.249 0.146,0.353 -0.027,0.104 -0.134,0.182 -0.293,0.242 0.159,0.063 0.266,0.141 0.291,0.245 0.025,0.104 -0.033,0.223 -0.145,0.352 0.17,-0.021 0.301,10e-4 0.371,0.082 0.071,0.081 0.075,0.212 0.035,0.379 0.141,-0.097 0.265,-0.139 0.365,-0.1 0.101,0.038 0.166,0.152 0.206,0.32 0.081,-0.152 0.171,-0.249 0.28,-0.26 0.104,-0.014 0.216,0.059 0.329,0.188 10e-4,-0.172 0.037,-0.299 0.127,-0.36 0.088,-0.061 0.219,-0.049 0.379,0.013 -0.078,-0.152 -0.105,-0.281 -0.055,-0.377 0.05,-0.095 0.173,-0.146 0.344,-0.166 -0.141,-0.099 -0.227,-0.2 -0.225,-0.308 0,-0.108 0.084,-0.209 0.227,-0.306 -0.17,-0.021 -0.291,-0.072 -0.342,-0.167 -0.049,-0.095 -0.022,-0.225 0.058,-0.377 -0.162,0.06 -0.292,0.072 -0.38,0.011 -0.089,-0.061 -0.125,-0.188 -0.125,-0.36 -0.112,0.128 -0.224,0.199 -0.33,0.185 -0.108,-0.014 -0.199,-0.108 -0.278,-0.261 z m 0.607,0.075 c 0.479,-0.535 1.021,-2.209 1.57,-4.104 -0.854,1.777 -1.569,3.386 -1.57,4.104 z m 1.569,-4.104 c 0.06,-0.122 0.121,-0.246 0.178,-0.37 -0.021,-0.007 -0.042,-0.017 -0.063,-0.026 -0.038,0.133 -0.076,0.266 -0.115,0.396 z m -1.063,4.454 c 0.672,-0.252 1.931,-1.483 3.297,-2.905 -1.581,1.176 -2.963,2.269 -3.297,2.905 z m 3.297,-2.905 c 0.1,-0.075 0.203,-0.15 0.305,-0.225 -0.014,-0.018 -0.03,-0.033 -0.042,-0.049 -0.087,0.09 -0.174,0.183 -0.263,0.274 z m -3.015,3.449 c 0.713,0.088 2.4,-0.417 4.272,-1.041 -1.948,0.308 -3.678,0.633 -4.272,1.041 z m 4.272,-1.04 c 0.11,-0.016 0.225,-0.034 0.337,-0.052 -0.004,-0.019 -0.009,-0.038 -0.014,-0.057 -0.107,0.036 -0.217,0.073 -0.323,0.109 z m -4.273,1.653 c 0.59,0.412 2.318,0.747 4.262,1.063 -1.865,-0.633 -3.548,-1.148 -4.262,-1.063 z m 4.263,1.063 c 0.095,0.033 0.191,0.067 0.285,0.098 0.005,-0.017 0.009,-0.033 0.012,-0.05 -0.097,-0.015 -0.198,-0.031 -0.297,-0.048 z m -4.551,-0.52 c 0.333,0.637 1.708,1.738 3.282,2.924 -1.359,-1.43 -2.609,-2.668 -3.282,-2.924 z m 3.283,2.922 c 0.059,0.062 0.12,0.126 0.179,0.189 0.01,-0.012 0.019,-0.021 0.03,-0.032 -0.07,-0.052 -0.142,-0.105 -0.209,-0.157 z M 74.46,85.317 c -0.003,0.719 0.703,2.331 1.547,4.113 -0.539,-1.897 -1.07,-3.575 -1.547,-4.113 z m 1.547,4.114 c 0.021,0.075 0.043,0.152 0.063,0.229 0.015,-0.006 0.025,-0.01 0.039,-0.014 -0.033,-0.072 -0.068,-0.146 -0.102,-0.215 z m -2.156,-4.042 c -0.336,0.637 -0.461,2.39 -0.542,4.361 0.404,-1.93 0.713,-3.663 0.542,-4.361 z m -0.542,4.361 c -0.017,0.075 -0.031,0.151 -0.047,0.228 0.014,0.003 0.025,0.003 0.039,0.005 0.002,-0.077 0.006,-0.157 0.008,-0.233 z M 73.28,85.169 c -0.596,0.407 -1.521,1.904 -2.508,3.61 1.254,-1.52 2.334,-2.912 2.508,-3.61 z m -2.508,3.61 c -0.053,0.063 -0.108,0.13 -0.162,0.193 0.013,0.008 0.024,0.014 0.038,0.024 0.04,-0.072 0.083,-0.145 0.124,-0.217 z m 2.103,-4.069 c -0.716,0.083 -2.231,0.978 -3.898,2.029 1.818,-0.762 3.418,-1.491 3.898,-2.029 z m -3.899,2.031 c -0.086,0.036 -0.174,0.072 -0.263,0.11 0.006,0.013 0.015,0.027 0.023,0.04 0.081,-0.049 0.161,-0.1 0.24,-0.15 z m 3.752,-2.628 c -0.671,-0.257 -2.429,-0.168 -4.395,-0.011 1.964,0.168 3.722,0.265 4.395,0.011 z m -4.395,-0.011 c -0.107,-0.01 -0.217,-0.02 -0.323,-0.029 0,0.019 -0.002,0.038 0,0.056 0.109,-0.01 0.218,-0.019 0.323,-0.027 z m 4.542,-0.583 c -0.473,-0.539 -2.069,-1.277 -3.881,-2.051 1.659,1.06 3.169,1.964 3.881,2.051 z m -3.881,-2.051 c -0.104,-0.067 -0.209,-0.134 -0.315,-0.201 -0.009,0.019 -0.019,0.038 -0.029,0.055 0.116,0.049 0.232,0.097 0.344,0.146 z m 4.29,1.593 c -0.169,-0.698 -1.241,-2.094 -2.485,-3.623 0.976,1.712 1.893,3.213 2.485,3.623 z m -2.485,-3.623 c -0.067,-0.115 -0.132,-0.232 -0.199,-0.349 -0.019,0.013 -0.039,0.026 -0.056,0.039 0.084,0.103 0.172,0.207 0.255,0.31 z"
                       fill="url(#SvgjsRadialGradient4288)"
                       opacity="0.7"
                       style="fill:url(#SvgjsRadialGradient4288)" /><path
                       id="SvgjsPath4291"
                       d="m 74.886,78.086 c -0.024,-0.003 -0.047,-0.007 -0.07,-0.01 -0.007,0.138 -0.016,0.277 -0.024,0.414 0.03,-0.134 0.063,-0.27 0.094,-0.404 z m -0.095,0.403 c -0.442,1.922 -0.787,3.649 -0.629,4.35 0.349,-0.628 0.509,-2.38 0.629,-4.35 z m -0.63,4.35 c -0.084,0.15 -0.176,0.243 -0.283,0.254 -0.106,0.01 -0.216,-0.064 -0.327,-0.195 -0.004,0.171 -0.042,0.297 -0.133,0.356 -0.09,0.059 -0.221,0.045 -0.38,-0.021 0.076,0.155 0.101,0.285 0.049,0.378 -0.053,0.094 -0.176,0.142 -0.345,0.158 0.137,0.101 0.22,0.204 0.217,0.312 -0.002,0.107 -0.089,0.207 -0.231,0.302 0.169,0.024 0.29,0.079 0.337,0.174 0.048,0.096 0.018,0.225 -0.064,0.375 0.161,-0.057 0.292,-0.065 0.379,-0.002 0.087,0.063 0.12,0.19 0.116,0.363 0.117,-0.125 0.229,-0.196 0.337,-0.179 0.105,0.014 0.194,0.113 0.27,0.268 0.045,-0.167 0.113,-0.279 0.216,-0.315 0.101,-0.036 0.225,0.01 0.363,0.111 -0.036,-0.167 -0.029,-0.299 0.044,-0.378 0.073,-0.079 0.205,-0.096 0.376,-0.072 -0.111,-0.132 -0.168,-0.251 -0.138,-0.355 0.028,-0.104 0.136,-0.18 0.299,-0.237 -0.16,-0.064 -0.263,-0.145 -0.288,-0.25 -0.023,-0.105 0.037,-0.223 0.154,-0.349 -0.172,0.016 -0.301,-0.006 -0.37,-0.088 -0.07,-0.082 -0.072,-0.214 -0.028,-0.379 -0.142,0.094 -0.268,0.134 -0.367,0.093 -0.103,-0.041 -0.165,-0.156 -0.203,-0.324 z m 0.568,0.231 c 0.601,-0.394 1.557,-1.871 2.578,-3.558 -1.285,1.495 -2.391,2.863 -2.578,3.558 z m 2.578,-3.559 c 0.089,-0.102 0.18,-0.206 0.268,-0.311 -0.019,-0.013 -0.036,-0.028 -0.055,-0.042 -0.071,0.119 -0.142,0.238 -0.213,0.353 z m -2.18,4.027 c 0.715,-0.07 2.25,-0.934 3.937,-1.953 -1.833,0.727 -3.45,1.425 -3.937,1.953 z m 3.936,-1.954 c 0.117,-0.046 0.235,-0.092 0.354,-0.138 -0.01,-0.021 -0.021,-0.04 -0.028,-0.059 -0.108,0.066 -0.216,0.133 -0.326,0.197 z m -3.804,2.553 c 0.666,0.27 2.426,0.218 4.395,0.101 -1.961,-0.208 -3.716,-0.342 -4.395,-0.101 z m 4.395,0.1 c 0.112,0.013 0.226,0.025 0.339,0.037 0,-0.02 0.001,-0.039 0.002,-0.058 -0.114,0.007 -0.229,0.014 -0.341,0.021 z M 75.1,84.729 c 0.462,0.551 2.046,1.321 3.842,2.129 -1.639,-1.095 -3.131,-2.027 -3.842,-2.129 z m 3.841,2.129 c 0.083,0.057 0.167,0.114 0.25,0.168 0.009,-0.015 0.017,-0.03 0.025,-0.045 -0.09,-0.039 -0.184,-0.081 -0.275,-0.123 z M 74.68,85.179 c 0.156,0.701 1.2,2.12 2.414,3.674 -0.943,-1.734 -1.83,-3.254 -2.414,-3.674 z m 2.414,3.671 c 0.042,0.075 0.083,0.153 0.125,0.229 0.012,-0.009 0.024,-0.016 0.037,-0.024 -0.054,-0.068 -0.109,-0.138 -0.162,-0.205 z m -2.991,-3.467 c -0.188,0.693 0.076,2.433 0.43,4.373 -0.031,-1.972 -0.109,-3.73 -0.43,-4.373 z m 0.429,4.373 c 0.001,0.078 0.003,0.158 0.003,0.238 0.014,-0.002 0.027,-0.004 0.041,-0.004 -0.014,-0.077 -0.029,-0.157 -0.044,-0.234 z m -1.036,-4.462 c -0.49,0.528 -1.064,2.189 -1.652,4.072 0.889,-1.759 1.637,-3.353 1.652,-4.072 z m -1.653,4.072 c -0.035,0.068 -0.07,0.138 -0.104,0.208 0.012,0.006 0.023,0.009 0.036,0.015 0.022,-0.073 0.046,-0.15 0.068,-0.223 z M 73,84.934 c -0.68,0.239 -1.962,1.446 -3.357,2.838 1.607,-1.144 3.009,-2.209 3.357,-2.838 z m -3.356,2.838 c -0.067,0.047 -0.137,0.098 -0.205,0.145 0.01,0.011 0.02,0.02 0.029,0.032 0.057,-0.059 0.117,-0.117 0.176,-0.177 z m 3.084,-3.387 c -0.713,-0.104 -2.407,0.368 -4.291,0.952 1.955,-0.266 3.688,-0.556 4.291,-0.952 z m -4.291,0.954 c -0.092,0.013 -0.187,0.024 -0.283,0.039 0.003,0.015 0.008,0.03 0.013,0.044 0.091,-0.026 0.181,-0.056 0.27,-0.083 z m 4.304,-1.567 c -0.582,-0.423 -2.303,-0.792 -4.242,-1.149 1.854,0.671 3.526,1.22 4.242,1.149 z m -4.242,-1.149 c -0.101,-0.037 -0.205,-0.075 -0.305,-0.112 -0.005,0.019 -0.011,0.037 -0.015,0.054 0.109,0.019 0.216,0.039 0.32,0.058 z m 4.539,0.612 c -0.318,-0.643 -1.668,-1.769 -3.219,-2.986 1.328,1.455 2.553,2.719 3.219,2.986 z m -3.22,-2.985 c -0.083,-0.091 -0.167,-0.183 -0.251,-0.275 -0.014,0.016 -0.029,0.031 -0.042,0.046 0.099,0.076 0.198,0.152 0.293,0.229 z m 3.733,2.649 c 0.017,-0.718 -0.656,-2.344 -1.464,-4.142 0.5,1.906 0.998,3.593 1.464,4.142 z m -1.464,-4.142 c -0.034,-0.128 -0.067,-0.259 -0.101,-0.389 -0.021,0.007 -0.043,0.015 -0.063,0.023 0.054,0.122 0.11,0.245 0.164,0.366 z"
                       fill="url(#SvgjsRadialGradient4292)"
                       opacity="0.4"
                       style="fill:url(#SvgjsRadialGradient4292)" /><path
                       id="SvgjsPath4295"
                       d="m 76.354,84 c 0,1.3 -1.053,2.353 -2.353,2.353 -1.299,0 -2.354,-1.053 -2.354,-2.353 0,-1.299 1.055,-2.354 2.354,-2.354 1.3,0 2.353,1.054 2.353,2.354 z"
                       fill="#4d3623"
                       stroke-width="none"
                       opacity="1" /><path
                       id="SvgjsPath4296"
                       d="m 76.354,84 c 0,1.3 -1.053,2.353 -2.353,2.353 -1.299,0 -2.354,-1.053 -2.354,-2.353 0,-1.299 1.055,-2.354 2.354,-2.354 1.3,0 2.353,1.054 2.353,2.354 z"
                       fill="#000000"
                       stroke-width="none"
                       opacity="0.9" /><path
                       id="SvgjsPath4297"
                       d="m 70.717,86.748 c 0.449,-0.302 1.059,-0.18 1.36,0.268 0.301,0.449 0.182,1.059 -0.268,1.36 -0.45,0.303 -1.059,0.183 -1.36,-0.267 -0.301,-0.449 -0.181,-1.06 0.268,-1.361 z"
                       fill="url(#SvgjsLinearGradient4298)"
                       opacity="0.5"
                       style="fill:url(#SvgjsLinearGradient4298)" /><path
                       id="SvgjsPath4301"
                       d="m 75.86,83.672 c -0.251,0.374 -0.969,0.331 -1.606,-0.096 -0.638,-0.427 -0.95,-1.078 -0.7,-1.451 v -0.001 c 0.25,-0.374 0.969,-0.331 1.605,0.097 0.639,0.426 0.951,1.076 0.701,1.451 0,0 0,0 0,0 z"
                       fill="url(#SvgjsLinearGradient4302)"
                       opacity="0.5"
                       style="fill:url(#SvgjsLinearGradient4302)" /><path
                       id="SvgjsPath4305"
                       d="m 78.716,82.673 c -0.568,0.873 -2.036,0.925 -3.275,0.117 -1.24,-0.808 -1.784,-2.17 -1.215,-3.043 0.568,-0.872 2.036,-0.924 3.275,-0.117 1.239,0.809 1.783,2.172 1.215,3.043 z"
                       fill="url(#SvgjsLinearGradient4306)"
                       opacity="0.75"
                       style="fill:url(#SvgjsLinearGradient4306)" /></g></g></g><g
                 id="svga-group-eyesfront-left"><path
                   id="SvgjsPath4200"
                   d="m 55.112,83.583 c 3.224,11.315 7.475,23.313 17.685,23.669 10.21,0.356 22.135,-7.239 22.29,-22.238 C 95.26,68.247 84.613,61.633 74.403,61.277 64.193,60.921 50.307,66.714 55.112,83.583 Z m 5.763,-0.493 c -0.252,-1.101 -0.325,-1.417 -0.311,-2.473 2.027,-1.21 4.04,-1.547 5.851,-1.905 2.123,-0.418 6.853,-0.845 10.317,-0.329 4.587,0.679 7.931,3.488 10.773,7.94 0.004,0.005 0.013,0.004 0.018,0.008 0.007,0.027 0.021,0.053 0.026,0.08 0.255,1.007 -0.816,1.819 -2.155,2.438 -4.771,0.609 -9.359,1.489 -14.194,0.87 C 61.519,88.478 61.345,84.21 60.875,83.09 Z"
                   fill="#ffd0bc"
                   stroke-width="none"
                   opacity="1" /><path
                   id="SvgjsPath4201"
                   d="m 74.225,95.171 c 9.256,1.401 17.847,-3.01 19.186,-9.859 1.34,-6.849 -5.072,-13.537 -14.329,-14.94 -9.258,-1.399 -17.845,3.012 -19.185,9.862 -1.34,6.848 5.07,13.532 14.328,14.937 z M 60.563,80.617 c 2.125,-1.141 4.04,-1.547 5.851,-1.905 2.123,-0.418 6.853,-0.845 10.317,-0.329 4.587,0.679 7.931,3.488 10.773,7.94 0.004,0.005 0.013,0.004 0.018,0.008 0.007,0.027 0.021,0.053 0.026,0.08 0.255,1.007 -0.816,1.819 -2.155,2.438 -4.771,0.609 -9.359,1.489 -14.194,0.87 C 61.518,88.478 61.344,84.21 60.873,83.09 60.622,81.989 60.55,81.672 60.563,80.617 Z"
                   fill="url(#SvgjsRadialGradient4202)"
                   opacity="1"
                   style="fill:url(#SvgjsRadialGradient4202)" /><path
                   id="SvgjsPath4206"
                   d="m 60.875,83.09 c -0.252,-1.101 -0.325,-1.417 -0.311,-2.473 2.092,-1.175 4.04,-1.547 5.851,-1.905 2.123,-0.418 6.853,-0.845 10.317,-0.329 4.587,0.679 7.931,3.488 10.773,7.94 0.004,0.005 0.013,0.004 0.018,0.008 0.007,0.027 0.021,0.053 0.026,0.08 0.255,1.007 -0.816,1.819 -2.155,2.438 -4.771,0.609 -9.359,1.489 -14.194,0.87 C 61.519,88.478 61.345,84.21 60.875,83.09 Z"
                   fill="url(#SvgjsRadialGradient4207)"
                   opacity="1"
                   style="fill:url(#SvgjsRadialGradient4207)" /><path
                   id="SvgjsPath4210"
                   d="m 76.327,75.748 c 3.294,0.539 6.505,2.054 9.48,3.945 0.637,0.404 1.366,0.865 2.521,1.451 -0.828,-0.188 -1.594,-0.617 -2.309,-1.011 0.736,0.698 1.422,1.529 1.982,2.334 C 85.48,79.308 80.704,76.929 76.641,76.118 72.739,75.339 65.652,75.854 60.39,78.16 65.208,75.449 72.237,75.08 76.327,75.748 Z"
                   fill="#d17f5b"
                   stroke-width="none"
                   opacity="1" /><path
                   id="SvgjsPath4211"
                   d="m 87.508,86.277 c -2.847,-4.34 -6.193,-7.082 -10.781,-7.747 -4.833,-0.705 -11.271,-0.221 -15.034,1.843 -0.308,0.169 -1.607,1.249 -1.401,0.117 0.874,-1.167 4.322,-2.523 5.993,-2.928 18.745,-4.543 22.297,10.292 21.223,8.715 z M 60.646,82.841 c -0.716,2.063 0.861,6.654 10.145,7.503 6.595,0.602 15.767,-1.75 14.634,-1.613 C 80.646,89.32 76.05,90.18 71.206,89.57 60.224,88.19 61.468,83.023 60.646,82.841 Z"
                   fill="#000000"
                   stroke-width="none"
                   opacity="1" /></g></g></g><g
             id="svga-group-eyes-right-move"><g
               id="svga-group-eyes-right"><g
                 id="svga-group-eyesback-right"><path
                   id="SvgjsPath4183"
                   d="m 122.867,78.383 c -4.586,0.679 -7.931,3.488 -10.773,7.94 -0.004,0.005 -0.012,0.004 -0.018,0.008 -0.006,0.027 -0.02,0.053 -0.025,0.08 -0.256,1.007 0.815,1.819 2.154,2.438 4.771,0.609 9.359,1.489 14.194,0.87 9.681,-1.241 9.855,-5.509 10.325,-6.629 0.253,-1.101 0.325,-1.417 0.312,-2.473 -2.331,-1.366 -4.043,-1.647 -5.854,-2.005 -2.123,-0.418 -6.85,-0.744 -10.315,-0.229 z"
                   fill="url(#SvgjsRadialGradient4184)"
                   opacity="1"
                   style="fill:url(#SvgjsRadialGradient4184)" /></g><g
                 id="svga-group-eyesiriswrapper-right"
                 transform="translate(-0.25)"><g
                   id="svga-group-eyesiriscontrol-right"><g
                     id="svga-group-eyesiris-right"><path
                       id="SvgjsPath4309"
                       d="m 132,84 c 0,3.313 -2.687,6 -5.999,6 C 122.688,90 120,87.313 120,84 v 0 c 0,-3.314 2.688,-6 6.001,-6 3.312,-0.001 5.999,2.686 5.999,6 z"
                       fill="#4d3623"
                       stroke-width="none"
                       opacity="1" /><path
                       id="SvgjsPath4310"
                       d="m 125.328,78.066 c -0.023,0.003 -0.047,0.006 -0.071,0.009 0.029,0.135 0.058,0.271 0.085,0.406 -0.006,-0.137 -0.009,-0.277 -0.014,-0.415 z m 0.013,0.414 c 0.069,1.972 0.185,3.729 0.518,4.364 0.174,-0.696 -0.124,-2.43 -0.518,-4.364 z m 0.517,4.365 c -0.042,0.167 -0.108,0.281 -0.207,0.319 -0.101,0.038 -0.226,-0.006 -0.367,-0.103 0.04,0.167 0.036,0.297 -0.036,0.378 -0.072,0.081 -0.201,0.101 -0.372,0.078 0.112,0.13 0.171,0.249 0.146,0.353 -0.028,0.104 -0.134,0.182 -0.293,0.242 0.158,0.063 0.265,0.141 0.29,0.245 0.025,0.104 -0.032,0.223 -0.145,0.352 0.17,-0.021 0.3,10e-4 0.37,0.082 0.071,0.081 0.075,0.212 0.035,0.379 0.141,-0.097 0.266,-0.139 0.365,-0.1 0.102,0.038 0.166,0.152 0.206,0.32 0.08,-0.152 0.172,-0.249 0.279,-0.26 0.105,-0.014 0.217,0.059 0.329,0.188 0.002,-0.172 0.037,-0.299 0.128,-0.36 0.087,-0.061 0.219,-0.049 0.379,0.013 -0.078,-0.152 -0.104,-0.281 -0.056,-0.377 0.051,-0.095 0.174,-0.146 0.345,-0.166 -0.141,-0.099 -0.228,-0.2 -0.225,-0.308 -10e-4,-0.108 0.084,-0.209 0.227,-0.306 -0.171,-0.021 -0.291,-0.072 -0.342,-0.167 -0.05,-0.095 -0.022,-0.225 0.057,-0.377 -0.161,0.06 -0.291,0.072 -0.38,0.011 -0.089,-0.061 -0.124,-0.188 -0.125,-0.36 -0.111,0.128 -0.224,0.199 -0.33,0.185 -0.107,-0.014 -0.198,-0.108 -0.278,-0.261 z m 0.608,0.075 c 0.479,-0.535 1.021,-2.209 1.569,-4.104 -0.853,1.777 -1.567,3.386 -1.569,4.104 z m 1.569,-4.104 c 0.06,-0.122 0.121,-0.246 0.179,-0.37 -0.021,-0.007 -0.042,-0.017 -0.063,-0.026 -0.039,0.133 -0.077,0.266 -0.116,0.396 z m -1.063,4.454 c 0.673,-0.252 1.932,-1.483 3.298,-2.905 -1.582,1.176 -2.963,2.269 -3.298,2.905 z m 3.298,-2.905 c 0.1,-0.075 0.202,-0.15 0.305,-0.225 -0.015,-0.018 -0.03,-0.033 -0.042,-0.049 -0.088,0.09 -0.175,0.183 -0.263,0.274 z m -3.015,3.449 c 0.713,0.088 2.399,-0.417 4.271,-1.041 -1.948,0.308 -3.678,0.633 -4.271,1.041 z m 4.271,-1.04 c 0.11,-0.016 0.225,-0.034 0.337,-0.052 -0.005,-0.019 -0.009,-0.038 -0.014,-0.057 -0.107,0.036 -0.217,0.073 -0.323,0.109 z m -4.273,1.653 c 0.591,0.412 2.318,0.747 4.263,1.063 -1.866,-0.633 -3.549,-1.148 -4.263,-1.063 z m 4.263,1.063 c 0.095,0.033 0.19,0.067 0.285,0.098 0.005,-0.017 0.009,-0.033 0.013,-0.05 -0.098,-0.015 -0.2,-0.031 -0.298,-0.048 z m -4.551,-0.52 c 0.332,0.637 1.708,1.738 3.282,2.924 -1.358,-1.43 -2.609,-2.668 -3.282,-2.924 z m 3.283,2.922 c 0.059,0.062 0.119,0.126 0.178,0.189 0.01,-0.012 0.02,-0.021 0.031,-0.032 -0.07,-0.052 -0.142,-0.105 -0.209,-0.157 z m -3.787,-2.575 c -0.003,0.719 0.702,2.331 1.547,4.113 -0.54,-1.897 -1.071,-3.575 -1.547,-4.113 z m 1.547,4.114 c 0.021,0.075 0.043,0.152 0.063,0.229 0.015,-0.006 0.026,-0.01 0.039,-0.014 -0.034,-0.072 -0.069,-0.146 -0.102,-0.215 z m -2.157,-4.042 c -0.336,0.637 -0.461,2.39 -0.542,4.361 0.404,-1.93 0.713,-3.663 0.542,-4.361 z m -0.542,4.361 c -0.017,0.075 -0.031,0.151 -0.047,0.228 0.014,0.003 0.024,0.003 0.039,0.005 0.002,-0.077 0.006,-0.157 0.008,-0.233 z m -0.03,-4.581 c -0.596,0.407 -1.521,1.904 -2.508,3.61 1.255,-1.52 2.334,-2.912 2.508,-3.61 z m -2.508,3.61 c -0.052,0.063 -0.107,0.13 -0.161,0.193 0.013,0.008 0.024,0.014 0.037,0.024 0.041,-0.072 0.084,-0.145 0.124,-0.217 z m 2.103,-4.069 c -0.716,0.083 -2.23,0.978 -3.897,2.029 1.818,-0.762 3.418,-1.491 3.897,-2.029 z m -3.897,2.031 c -0.087,0.036 -0.175,0.072 -0.263,0.11 0.006,0.013 0.014,0.027 0.023,0.04 0.08,-0.049 0.16,-0.1 0.24,-0.15 z m 3.752,-2.628 c -0.672,-0.257 -2.43,-0.168 -4.396,-0.011 1.965,0.168 3.722,0.265 4.396,0.011 z m -4.396,-0.011 c -0.106,-0.01 -0.217,-0.02 -0.322,-0.029 -10e-4,0.019 -0.003,0.038 -10e-4,0.056 0.109,-0.01 0.218,-0.019 0.323,-0.027 z m 4.543,-0.583 c -0.474,-0.539 -2.069,-1.277 -3.882,-2.051 1.659,1.06 3.169,1.964 3.882,2.051 z m -3.882,-2.051 c -0.104,-0.067 -0.21,-0.134 -0.315,-0.201 -0.009,0.019 -0.019,0.038 -0.028,0.055 0.115,0.049 0.232,0.097 0.343,0.146 z m 4.29,1.593 c -0.169,-0.698 -1.241,-2.094 -2.485,-3.623 0.976,1.712 1.893,3.213 2.485,3.623 z m -2.485,-3.623 c -0.067,-0.115 -0.133,-0.232 -0.198,-0.349 -0.019,0.013 -0.039,0.026 -0.057,0.039 0.085,0.103 0.172,0.207 0.255,0.31 z"
                       fill="url(#SvgjsRadialGradient4311)"
                       opacity="0.7"
                       style="fill:url(#SvgjsRadialGradient4311)" /><path
                       id="SvgjsPath4314"
                       d="m 126.886,78.086 c -0.024,-0.003 -0.047,-0.007 -0.07,-0.01 -0.008,0.138 -0.016,0.277 -0.024,0.414 0.029,-0.134 0.062,-0.27 0.094,-0.404 z m -0.095,0.403 c -0.443,1.922 -0.787,3.649 -0.63,4.35 0.35,-0.628 0.51,-2.38 0.63,-4.35 z m -0.63,4.35 c -0.084,0.15 -0.177,0.243 -0.283,0.254 -0.106,0.01 -0.216,-0.064 -0.327,-0.195 -0.004,0.171 -0.042,0.297 -0.133,0.356 -0.09,0.059 -0.221,0.045 -0.38,-0.021 0.075,0.155 0.101,0.285 0.049,0.378 -0.054,0.094 -0.176,0.142 -0.346,0.158 0.138,0.101 0.22,0.204 0.217,0.312 -0.002,0.107 -0.089,0.207 -0.23,0.302 0.17,0.024 0.289,0.079 0.337,0.174 0.048,0.096 0.018,0.225 -0.064,0.375 0.162,-0.057 0.293,-0.065 0.38,-0.002 0.087,0.063 0.12,0.19 0.115,0.363 0.117,-0.125 0.229,-0.196 0.337,-0.179 0.105,0.014 0.194,0.113 0.27,0.268 0.046,-0.167 0.113,-0.279 0.216,-0.315 0.101,-0.036 0.226,0.01 0.363,0.111 -0.035,-0.167 -0.028,-0.299 0.045,-0.378 0.072,-0.079 0.204,-0.096 0.375,-0.072 -0.11,-0.132 -0.168,-0.251 -0.138,-0.355 0.027,-0.104 0.136,-0.18 0.299,-0.237 -0.159,-0.064 -0.263,-0.145 -0.288,-0.25 -0.022,-0.105 0.038,-0.223 0.154,-0.349 -0.172,0.016 -0.302,-0.006 -0.37,-0.088 -0.07,-0.082 -0.072,-0.214 -0.027,-0.379 -0.143,0.094 -0.269,0.134 -0.368,0.093 -0.102,-0.041 -0.166,-0.156 -0.203,-0.324 z m 0.568,0.231 c 0.601,-0.394 1.557,-1.871 2.578,-3.558 -1.285,1.495 -2.391,2.863 -2.578,3.558 z m 2.578,-3.559 c 0.089,-0.102 0.18,-0.206 0.269,-0.311 -0.02,-0.013 -0.037,-0.028 -0.056,-0.042 -0.071,0.119 -0.142,0.238 -0.213,0.353 z m -2.18,4.027 c 0.715,-0.07 2.249,-0.934 3.937,-1.953 -1.833,0.727 -3.45,1.425 -3.937,1.953 z m 3.936,-1.954 c 0.116,-0.046 0.234,-0.092 0.354,-0.138 -0.01,-0.021 -0.021,-0.04 -0.028,-0.059 -0.108,0.066 -0.216,0.133 -0.326,0.197 z m -3.804,2.553 c 0.666,0.27 2.426,0.218 4.396,0.101 -1.963,-0.208 -3.717,-0.342 -4.396,-0.101 z m 4.395,0.1 c 0.111,0.013 0.226,0.025 0.339,0.037 0.001,-0.02 0.001,-0.039 0.002,-0.058 -0.113,0.007 -0.229,0.014 -0.341,0.021 z m -4.554,0.492 c 0.463,0.551 2.046,1.321 3.842,2.129 -1.639,-1.095 -3.131,-2.027 -3.842,-2.129 z m 3.841,2.129 c 0.082,0.057 0.167,0.114 0.25,0.168 0.009,-0.015 0.018,-0.03 0.024,-0.045 -0.089,-0.039 -0.183,-0.081 -0.274,-0.123 z m -4.26,-1.679 c 0.155,0.701 1.199,2.12 2.413,3.674 -0.943,-1.734 -1.829,-3.254 -2.413,-3.674 z m 2.414,3.671 c 0.041,0.075 0.082,0.153 0.124,0.229 0.012,-0.009 0.023,-0.016 0.037,-0.024 -0.054,-0.068 -0.11,-0.138 -0.161,-0.205 z m -2.992,-3.467 c -0.188,0.693 0.076,2.433 0.43,4.373 -0.031,-1.972 -0.109,-3.73 -0.43,-4.373 z m 0.429,4.373 c 0.001,0.078 0.003,0.158 0.003,0.238 0.015,-0.002 0.026,-0.004 0.04,-0.004 -0.013,-0.077 -0.028,-0.157 -0.043,-0.234 z m -1.037,-4.462 c -0.489,0.528 -1.064,2.189 -1.652,4.072 0.89,-1.759 1.637,-3.353 1.652,-4.072 z m -1.652,4.072 c -0.035,0.068 -0.069,0.138 -0.104,0.208 0.012,0.006 0.022,0.009 0.035,0.015 0.023,-0.073 0.047,-0.15 0.069,-0.223 z M 125,84.934 c -0.68,0.239 -1.961,1.446 -3.356,2.838 1.606,-1.144 3.008,-2.209 3.356,-2.838 z m -3.356,2.838 c -0.067,0.047 -0.138,0.098 -0.205,0.145 0.01,0.011 0.02,0.02 0.029,0.032 0.057,-0.059 0.118,-0.117 0.176,-0.177 z m 3.084,-3.387 c -0.713,-0.104 -2.406,0.368 -4.29,0.952 1.954,-0.266 3.688,-0.556 4.29,-0.952 z m -4.29,0.954 c -0.093,0.013 -0.188,0.024 -0.283,0.039 0.004,0.015 0.008,0.03 0.013,0.044 0.09,-0.026 0.18,-0.056 0.27,-0.083 z m 4.303,-1.567 c -0.582,-0.423 -2.303,-0.792 -4.242,-1.149 1.854,0.671 3.526,1.22 4.242,1.149 z m -4.242,-1.149 c -0.101,-0.037 -0.205,-0.075 -0.305,-0.112 -0.006,0.019 -0.011,0.037 -0.015,0.054 0.108,0.019 0.216,0.039 0.32,0.058 z m 4.539,0.612 c -0.318,-0.643 -1.669,-1.769 -3.22,-2.986 1.329,1.455 2.554,2.719 3.22,2.986 z m -3.22,-2.985 c -0.083,-0.091 -0.167,-0.183 -0.251,-0.275 -0.015,0.016 -0.028,0.031 -0.043,0.046 0.099,0.076 0.2,0.152 0.294,0.229 z m 3.733,2.649 c 0.017,-0.718 -0.656,-2.344 -1.464,-4.142 0.501,1.906 0.998,3.593 1.464,4.142 z m -1.464,-4.142 c -0.034,-0.128 -0.067,-0.259 -0.102,-0.389 -0.021,0.007 -0.043,0.015 -0.063,0.023 0.055,0.122 0.111,0.245 0.165,0.366 z"
                       fill="url(#SvgjsRadialGradient4315)"
                       opacity="0.4"
                       style="fill:url(#SvgjsRadialGradient4315)" /><path
                       id="SvgjsPath4318"
                       d="m 128.354,84 c 0,1.3 -1.054,2.353 -2.353,2.353 -1.3,0 -2.354,-1.053 -2.354,-2.353 0,-1.299 1.055,-2.354 2.354,-2.354 1.301,0 2.353,1.054 2.353,2.354 z"
                       fill="#4d3623"
                       stroke-width="none"
                       opacity="1" /><path
                       id="SvgjsPath4319"
                       d="m 128.354,84 c 0,1.3 -1.054,2.353 -2.353,2.353 -1.3,0 -2.354,-1.053 -2.354,-2.353 0,-1.299 1.055,-2.354 2.354,-2.354 1.301,0 2.353,1.054 2.353,2.354 z"
                       fill="#000000"
                       stroke-width="none"
                       opacity="0.9" /><path
                       id="SvgjsPath4320"
                       d="m 122.718,86.748 c 0.448,-0.302 1.059,-0.18 1.359,0.268 0.302,0.449 0.183,1.059 -0.268,1.36 -0.45,0.303 -1.059,0.183 -1.359,-0.267 -0.302,-0.449 -0.182,-1.06 0.268,-1.361 z"
                       fill="url(#SvgjsLinearGradient4321)"
                       opacity="0.5"
                       style="fill:url(#SvgjsLinearGradient4321)" /><path
                       id="SvgjsPath4324"
                       d="m 127.859,83.672 c -0.251,0.374 -0.969,0.331 -1.605,-0.096 -0.638,-0.427 -0.95,-1.078 -0.7,-1.451 l 0.001,-0.001 c 0.25,-0.374 0.969,-0.331 1.605,0.097 0.638,0.426 0.95,1.076 0.699,1.451 0,0 0,0 0,0 z"
                       fill="url(#SvgjsLinearGradient4325)"
                       opacity="0.5"
                       style="fill:url(#SvgjsLinearGradient4325)" /><path
                       id="SvgjsPath4328"
                       d="m 130.717,82.673 c -0.569,0.873 -2.036,0.925 -3.276,0.117 -1.239,-0.808 -1.784,-2.17 -1.215,-3.043 0.568,-0.872 2.035,-0.924 3.275,-0.117 1.239,0.809 1.783,2.172 1.216,3.043 z"
                       fill="url(#SvgjsLinearGradient4329)"
                       opacity="0.75"
                       style="fill:url(#SvgjsLinearGradient4329)" /></g></g></g><g
                 id="svga-group-eyesfront-right"><path
                   id="SvgjsPath4221"
                   d="m 125.197,61.277 c -10.211,0.356 -20.857,6.97 -20.685,23.737 0.154,15 12.079,22.595 22.29,22.238 10.21,-0.356 16.187,-17.323 17.685,-23.669 4.03,-17.071 -9.08,-22.662 -19.29,-22.306 z m 3.202,28.442 c -4.835,0.619 -9.423,-0.261 -14.194,-0.87 -1.339,-0.618 -2.41,-1.43 -2.154,-2.438 0.006,-0.027 0.02,-0.053 0.025,-0.08 0.006,-0.004 0.014,-0.003 0.018,-0.008 2.843,-4.452 6.188,-7.261 10.773,-7.94 3.465,-0.516 8.195,-0.089 10.318,0.329 1.811,0.357 3.824,0.694 5.851,1.905 0.014,1.055 -0.059,1.372 -0.312,2.473 -0.469,1.12 -0.644,5.388 -10.325,6.629 z"
                   fill="#ffd0bc"
                   stroke-width="none"
                   opacity="1" /><path
                   id="SvgjsPath4222"
                   d="m 139.703,80.234 c -1.34,-6.85 -9.928,-11.261 -19.186,-9.862 -9.257,1.403 -15.669,8.091 -14.328,14.94 1.339,6.849 9.93,11.26 19.186,9.859 9.258,-1.405 15.668,-8.089 14.328,-14.937 z m -0.978,2.856 c -0.47,1.121 -0.645,5.388 -10.325,6.629 -4.835,0.619 -9.423,-0.261 -14.194,-0.87 -1.339,-0.618 -2.41,-1.43 -2.154,-2.438 0.006,-0.027 0.02,-0.053 0.025,-0.08 0.006,-0.004 0.014,-0.003 0.018,-0.008 2.843,-4.452 6.188,-7.261 10.773,-7.94 3.465,-0.516 8.195,-0.089 10.318,0.329 1.811,0.357 3.727,0.764 5.851,1.905 0.013,1.055 -0.059,1.372 -0.312,2.473 z"
                   fill="url(#SvgjsRadialGradient4223)"
                   opacity="1"
                   style="fill:url(#SvgjsRadialGradient4223)" /><path
                   id="SvgjsPath4227"
                   d="m 138.725,83.09 c 0.253,-1.101 0.325,-1.417 0.312,-2.473 -2.092,-1.175 -4.04,-1.547 -5.851,-1.905 -2.123,-0.418 -6.854,-0.845 -10.318,-0.329 -4.586,0.679 -7.931,3.488 -10.773,7.94 -0.004,0.005 -0.012,0.004 -0.018,0.008 -0.006,0.027 -0.02,0.053 -0.025,0.08 -0.256,1.007 0.815,1.819 2.154,2.438 4.771,0.609 9.359,1.489 14.194,0.87 9.68,-1.241 9.855,-5.509 10.325,-6.629 z"
                   fill="url(#SvgjsRadialGradient4228)"
                   opacity="1"
                   style="fill:url(#SvgjsRadialGradient4228)" /><path
                   id="SvgjsPath4231"
                   d="m 123.273,75.748 c -3.295,0.539 -6.506,2.054 -9.48,3.945 -0.637,0.404 -1.367,0.865 -2.521,1.451 0.828,-0.188 1.594,-0.617 2.309,-1.011 -0.736,0.698 -1.422,1.529 -1.982,2.334 2.521,-3.159 7.297,-5.538 11.359,-6.349 3.902,-0.779 10.989,-0.264 16.252,2.042 -4.819,-2.711 -11.848,-3.08 -15.937,-2.412 z"
                   fill="#d17f5b"
                   stroke-width="none"
                   opacity="1" /><path
                   id="SvgjsPath4232"
                   d="m 133.314,77.563 c 1.672,0.405 5.119,1.761 5.994,2.928 0.205,1.132 -1.094,0.052 -1.402,-0.117 -3.764,-2.064 -10.201,-2.548 -15.033,-1.843 -4.588,0.665 -7.936,3.407 -10.781,7.747 -1.074,1.576 2.478,-13.259 21.222,-8.715 z m -4.919,12.007 c -4.844,0.61 -9.439,-0.25 -14.219,-0.839 -1.134,-0.137 8.038,2.215 14.633,1.613 9.284,-0.849 10.861,-5.44 10.145,-7.503 -0.823,0.182 0.422,5.349 -10.559,6.729 z"
                   fill="#000000"
                   stroke-width="none"
                   opacity="1" /></g></g></g><g
             id="svga-group-facehighlight-single"><path
               id="SvgjsPath2906"
               d="m 141,113.974 c 0.035,22.622 -18.292,40.994 -40.938,41.025 -22.642,0.037 -41.028,-18.273 -41.063,-40.9 -0.035,-22.62 18.292,-41.064 40.937,-41.1 22.643,-0.035 41.031,18.35 41.064,40.975 z"
               fill="url(#SvgjsRadialGradient2907)"
               opacity="1"
               style="fill:url(#SvgjsRadialGradient2907)" /><path
               id="SvgjsPath2910"
               d="m 137.5,53.999 c 0,20.711 -16.789,37.5 -37.499,37.5 -20.711,0 -37.501,-16.789 -37.501,-37.5 0,-20.711 16.79,-37.5 37.501,-37.5 20.71,0 37.499,16.789 37.499,37.5 z"
               fill="url(#SvgjsRadialGradient2911)"
               opacity="1"
               style="fill:url(#SvgjsRadialGradient2911)" /></g><g
             id="svga-group-eyebrows-left-move"><g
               id="svga-group-eyebrows-left-rotate"><g
                 id="svga-group-eyebrows-left"><path
                   id="SvgjsPath4342"
                   d="m 52.488,73.87 c 7.475,-9.383 20.338,-7.822 30.878,-6.314 2.681,0.384 5.441,0.672 8.07,1.336 1.884,0.475 3.365,2.622 1.851,4.356 C 92.579,74.073 91.034,73.92 90.08,73.9 77.459,73.645 63.193,66.387 52.488,73.87 Z"
                   fill="#2a232b"
                   stroke-width="none"
                   opacity="1" /></g></g></g><g
             id="svga-group-eyebrows-right-move"><g
               id="svga-group-eyebrows-right-rotate"><g
                 id="svga-group-eyebrows-right"><path
                   id="SvgjsPath4343"
                   d="m 147.577,73.49 c -2.164,-1.448 -4.454,-2.47 -7.043,-2.889 -9.497,-1.54 -27.586,4.79 -32.341,3.45 -2.912,-0.822 -2.323,-3.739 -1.035,-4.458 0.775,-0.433 0.99,-0.422 7.909,-1.612 11.757,-2.02 24.921,-3.626 32.51,5.509 z"
                   fill="#2a232b"
                   stroke-width="none"
                   opacity="1" /></g></g></g><g
             id="svga-group-nose-single-move"><g
               id="svga-group-nose-single"><path
                 id="SvgjsPath4375"
                 d="m 96.831,88.524 c 0,0 -1.399,11.117 -2.026,13.281 -1.379,4.752 -6.168,11.417 -5.239,14.429 1.859,6.022 7.537,4.493 10.524,4.471 2.763,-0.022 8.072,1.552 9.162,-2.37 0.352,-1.266 -0.441,-4.466 -0.441,-4.466 0,0 -2.644,3.112 -8.875,2.767 -1.778,-0.099 -4.671,-2.096 -4.704,-4.912 -0.043,-3.817 1.802,-7.035 2.205,-10.824 0.304,-2.878 -0.606,-12.376 -0.606,-12.376 z"
                 fill="#f0b399"
                 stroke-width="none"
                 opacity="1" /><path
                 id="SvgjsPath4376"
                 d="m 105.194,118.969 c 1.075,0 1.366,0.326 1.366,0.729 0,0.404 -0.335,1.026 -1.366,0.73 -1.134,-0.323 -3.113,-0.175 -3.113,-0.175 0,0 2.036,-1.284 3.113,-1.284 z m -10.272,0 c -1.077,0.001 -1.366,0.328 -1.366,0.733 -10e-4,0.403 0.323,0.983 1.366,0.729 1.15,-0.282 3.112,-0.175 3.112,-0.175 0,0 -2.035,-1.283 -3.112,-1.287 z m 13.888,-5.1 c 0,0 1.489,1.933 1.18,3.975 -0.301,1.983 -3.31,2.861 -3.31,2.861 0,0 2.089,-1.516 2.342,-3.356 0.118,-0.863 -0.212,-3.48 -0.212,-3.48 z m -18.383,-1.986 c 0,0 -1.086,2.704 -0.772,4.352 0.571,2.976 3.704,4.164 3.704,4.164 0,0 -1.955,-2.039 -2.65,-3.842 -0.761,-1.97 -0.282,-4.674 -0.282,-4.674 z"
                 fill="#d17f5b"
                 stroke-width="none"
                 opacity="1" /><path
                 id="SvgjsPath4377"
                 d="m 105.141,115.311 c 1.043,-0.889 1.148,-1.396 0.932,-1.729 -0.215,-0.334 -0.841,-0.545 -1.714,0.528 -0.963,1.18 -3.056,2.054 -3.056,2.054 0,0 2.795,0.034 3.838,-0.853 z"
                 fill="#ffe2d6"
                 stroke-width="none"
                 opacity="1" /></g></g><g
             id="svga-group-beardwrap"><g
               id="svga-group-beard-single-move"><g
                 id="svga-group-beard-single"><path
                   id="SvgjsPath3042"
                   d="M 100,18.13 Z"
                   fill="#2a232b"
                   stroke-width="none"
                   opacity="1" /></g></g></g><g
             id="svga-group-mustache-single-move"><g
               id="svga-group-mustache-single"><path
                 id="SvgjsPath3040"
                 d="M 100,18.13 Z"
                 fill="#2a232b"
                 stroke-width="none"
                 opacity="1" /></g></g><g
             id="svga-group-hair-front"><path
               id="SvgjsPath4164"
               d="M 44.974,94.895 C 42.551,86.08 41.246,78.362 39.434,70.31 l 0.083,-0.019 c -0.686,-1.689 -3.162,-15.06 -3.185,-15.204 -2.525,-17.77 4.993,-18.784 4.84,-26.198 3.165,1.585 6.242,0.799 9.019,-1.365 -2.918,-1.499 -1.997,-1.736 -5.872,-4.095 2.731,-0.472 4.326,0.165 6.646,0.454 C 48.982,21.9 45.09,17.855 42.561,18.391 l -0.165,-0.354 c 3.661,-2.857 8.548,3.091 12.954,1.48 0.133,-16.373 24.067,-19.773 29.892,-22.206 7.755,-2.951 15.856,-9.441 21.553,-10.021 -3.225,3.241 -5.2,8.449 -5.347,12.358 4.698,-4.486 5.03,-4.355 12.151,-12.264 0,6.364 -1.763,7.163 -4.051,10.898 6.211,-4.07 13.955,-15.489 25.881,-17.235 l 0.131,0.37 c -4.298,2.532 -7.624,6.804 -9.898,12.708 2.257,-2.726 5.451,-5.683 8.986,-6.218 l 0.133,0.369 c -2.215,1.325 -6.554,5.742 -7.547,13.138 4.381,-4.893 11.35,-8.948 16.134,-10.48 l 0.187,0.346 c -4.392,3.573 -6.153,9.828 -7.146,15.146 3.08,-4.58 4.872,-5.624 8.747,-7.548 -1.247,1.865 -1.166,1.539 -2.158,3.566 2.396,6.123 10.313,6.361 11.666,17.059 1.63,-1.424 2.277,-1.781 4.151,-3.092 l 0.282,0.272 c -1.408,2.187 -2.569,6.06 -3.342,8.652 2.78,-2.123 7.073,-3.687 10.096,-4.778 l 0.211,0.328 c -2.551,2.593 -5.648,6.546 -6.162,10.834 1,-0.592 1.048,-0.524 2.35,-1.466 0,3.081 0.105,2.688 0.127,4.105 1.257,-1.125 1.45,-1.282 2.276,-2.181 -0.183,32.362 -1.845,25.912 -6.317,48.466 -0.784,3.963 -2.171,10.883 -3.061,14.207 l -6.049,1.039 c 1.87,-22.394 -0.093,-17.512 1.267,-31.604 2.012,-20.779 -14.804,-37.812 -37.025,-32.237 -4.496,1.128 -22.44,1.127 -26.934,0 -24.547,-6.163 -33.391,8.18 -36.026,33.278 -1.291,12.318 -1.607,8.161 0.267,30.563 z"
               fill="#2a232b"
               stroke-width="none"
               opacity="1"
               stroke="none" /><path
               id="SvgjsPath4165"
               d="m 162.376,34.359 c -0.021,-1.418 -0.127,-1.024 -0.127,-4.105 -1.302,0.941 -1.35,0.874 -2.35,1.466 0.514,-4.288 3.611,-8.241 6.162,-10.834 l -0.211,-0.328 c -3.022,1.092 -7.315,2.655 -10.096,4.778 0.772,-2.592 1.934,-6.465 3.342,-8.652 l -0.282,-0.272 c -1.874,1.311 -2.521,1.668 -4.151,3.092 -1.353,-10.697 -9.27,-10.936 -11.666,-17.059 0.992,-2.027 0.911,-1.701 2.158,-3.566 -3.875,1.924 -5.667,2.968 -8.747,7.548 0.993,-5.318 2.755,-11.573 7.146,-15.146 l -0.187,-0.346 c -4.784,1.532 -11.753,5.587 -16.134,10.48 0.993,-7.396 5.332,-11.813 7.547,-13.138 l -0.133,-0.369 c -3.535,0.535 -6.729,3.493 -8.986,6.218 2.274,-5.904 5.601,-10.176 9.898,-12.708 l -0.131,-0.37 c -11.926,1.746 -19.67,13.165 -25.881,17.235 2.288,-3.735 4.051,-4.535 4.051,-10.898 -7.121,7.909 -7.453,7.778 -12.151,12.264 0.146,-3.909 2.122,-9.118 5.347,-12.358 -5.696,0.58 -13.797,7.069 -21.553,10.021 -5.824,2.432 -29.758,5.832 -29.891,22.206 -4.406,1.611 -9.293,-4.337 -12.954,-1.48 l 0.165,0.354 c 2.529,-0.537 6.421,3.508 8.404,5.492 -2.319,-0.289 -3.915,-0.926 -6.646,-0.454 3.875,2.359 2.954,2.596 5.872,4.095 -2.777,2.164 -5.854,2.95 -9.019,1.365 0.153,7.415 -7.366,8.429 -4.84,26.198 0.023,0.144 2.499,13.515 3.185,15.204 l -0.083,0.019 c 1.812,8.052 3.117,15.771 5.54,24.585 L 45,94.899 C 44.339,78.457 33.98,55.083 40.059,40.111 40.852,38.156 43.92,33 43.92,33 c 0,0 9.627,-1.264 10.08,-5 0,0 -2,-1 -3,-2 2,1 2,-2 4,-1 0,-2 -3,-1 -3,-3 2,0 4,0 6,2 -1,-5 0,-10 4,-13 10,-8 23,-7 33,-15 -1,5 -2,10 -2,15 6,-3 8,-9 13,-13 1,4 -1,9 -1,13 3,-7 7,-14 16,-16 -4,4 -4,10 -4,15 0,-4 4,-6 5,-9 0,4 0,8 0,12 2,-6 6,-9 11,-11 -4,4 -3,8 -4,13 3,-3 7,-4 10,-7 3,6 1,11 1,17 1,-5 6,-8 9,-12 1,5 1,10 0,15 1,-3 3,-5 4,-8 0,4.86 -0.668,9.062 -1.98,13.142 1.255,-1.452 3.304,-2.111 3.98,-4.142 0,4.325 0,7.904 0,12.027 0.58,-1.192 2.29,-1.608 3,-3.027 -0.854,3.413 -0.254,6.103 -0.059,9.302 0.371,-1.96 2.258,-3.162 2.94,-4.967 0.04,-0.778 0.081,-1.557 0.118,-2.335 0.229,0.912 0.135,1.664 -0.118,2.335 -0.912,17.771 -2.593,35.516 -6.256,52.628 l 0.648,-0.111 c 0.89,-3.324 2.276,-10.244 3.061,-14.207 4.473,-22.554 6.135,-16.104 6.317,-48.466 -0.825,0.899 -1.018,1.056 -2.275,2.18 z"
               fill="#3a353a"
               stroke-width="none"
               opacity="1"
               stroke="none" /><path
               id="SvgjsPath4166"
               d="m 167.779,19.695 c -4.949,0.834 -8.406,2.438 -11.05,4.25 0.385,-1.005 2.193,-6.67 4.14,-9.05 -2.99,1.333 -4.72,2.763 -5.72,3.51 0,-1.032 -0.398,-2.224 -0.59,-2.84 -0.189,-0.515 -0.348,-1.117 -1.271,-2.62 -5.171,-7.296 -5.494,-4.244 -9.729,-9.83 0.772,-1.811 1.889,-3.572 3.29,-5.03 -3.908,0.555 -5.965,2.075 -8.44,4.51 -0.04,0.04 -0.07,0.08 -0.1,0.12 1.551,-6.126 4.59,-11.437 10.56,-13.43 -7.384,-0.268 -16.525,5.192 -21.12,10.64 1.984,-6.381 4.646,-9.421 8.601,-12.25 -2.846,-0.421 -5.635,0.742 -7.841,2.58 2.541,-4.397 6.317,-7.899 9.351,-9.53 -0.431,-0.01 -0.94,-0.04 -1.5,0 -0.777,-0.199 -5.479,0.566 -7.16,1.29 -8.329,3.252 -14.389,10.822 -16.99,13.28 1.916,-3.098 2.01,-5.298 1.66,-8.52 -0.655,0.563 -11.615,11.055 -11.75,11.19 0.777,-4.309 2.245,-6.937 5.02,-10.79 -4.947,-0.926 -17.332,7.217 -25.01,9.39 -8.044,2.179 -28.004,6.723 -27.09,22.7 -4.295,0.819 -10.584,-6.077 -13.88,-0.29 2.646,-1.57 6.151,2.21 8.59,4.37 -1,-0.163 -4.343,-0.948 -5.96,0.13 1.894,0.735 3.55,2.932 5.89,4.1 0.03,0.01 0.06,0.02 0.09,0.04 -2.139,1.128 -4.667,2.034 -6.99,1.39 -0.35,-0.1 -0.58,-0.16 -0.58,-0.17 -0.27,-0.12 -0.56,-0.24 -0.87,-0.38 h -0.01 l -0.01,-0.01 c -0.13,-0.07 -0.26,-0.14 -0.4,-0.21 0.695,5.608 -7.817,10.155 -6.88,22.02 0.385,7.301 4.949,29.508 10.686,44.566 l 0.483,0.144 c -2.392,-8.626 -3.777,-16.74 -5.569,-24.701 -0.156,0 -3.073,-15.044 -3.1,-15.21 -2.506,-17.631 4.994,-18.91 4.85,-25.84 3.121,1.561 6.532,0.436 9.18,-1.73 -3.118,-1.551 -2.453,-1.988 -5.68,-3.95 2.163,-0.374 4.803,0.483 6.62,0.6 -2.346,-2.346 -6.299,-6.51 -8.98,-5.94 3.568,-2.785 8.497,3.271 13.03,1.46 0,-16.383 23.723,-19.635 29.77,-22.16 7.271,-2.766 16.283,-9.476 20.939,-9.95 -2.44,2.458 -5.02,7.901 -5.02,12.58 4.834,-4.638 5.31,-4.615 12.16,-12.22 0,6.014 -2.247,7.088 -4.431,10.97 6.414,-3.698 14.179,-15.828 26.49,-17.63 -5.154,3.037 -8.435,8.325 -10.41,13.97 2.352,-3.059 5.8,-6.53 9.63,-7.11 -2.009,1.202 -6.861,5.782 -7.72,13.93 4.345,-5.114 11.586,-9.346 16.47,-10.91 -4.605,3.748 -6.368,10.371 -7.39,16.22 1.687,-2.573 3.357,-4.897 5.97,-6.54 0.011,-0.01 0.03,-0.02 0.04,-0.02 1.029,-0.699 0.76,-0.509 2.521,-1.39 -0.669,1 -0.731,0.87 -1.79,3.04 2.426,6.377 10.523,6.413 11.729,17.47 1.857,-1.647 2.441,-1.944 4.42,-3.33 -1.542,2.394 -2.784,6.768 -3.55,9.32 2.905,-2.485 8.279,-4.33 10.54,-5.15 -3,3.05 -5.913,7.096 -6.26,11.36 0.614,-0.413 1.394,-0.74 2.39,-1.46 0,2.724 0.13,2.36 0.13,4.16 0.526,-0.481 1.72,-1.51 2.271,-2.11 -0.196,31.716 -1.88,25.564 -6.311,47.91 -1.658,8.376 -2.533,12.25 -3.081,14.283 l 0.428,-0.087 c 3.584,-10.751 10.737,-35.042 10.414,-47.616 -0.033,-4.7 -1.059,-14.5 -1.11,-15.5 -0.021,0.018 -2.084,1.97 -2.11,1.97 0,-0.511 -0.21,-2.685 -0.21,-3.87 -0.353,0.271 -1.095,0.778 -2.09,1.36 1.379,-4.163 3.478,-6.75 7.4,-11.449 z"
               fill="#000000"
               stroke-width="none"
               opacity="1"
               stroke="none" /></g><g
             id="svga-group-glasses-single-move"><g
               id="svga-group-glasses-single"><path
                 id="SvgjsPath4344"
                 d="M 100,18.13 Z"
                 fill="#26120b"
                 stroke-width="none"
                 opacity="1" /></g></g></g></g></g><rect
       id="SvgjsRect1057"
       width="200"
       height="15"
       x="0"
       y="185"
       fill="#ecf0f1"
       opacity="0.5"
       style="display:none" /><text
       id="SvgjsText1058"
       font-family="Roboto, Helvetica, Arial, sans-serif"
       font-size="10px"
       text-anchor="start"
       font-weight="400"
       anchor="start"
       fill="#333333"
       x="38.359375"
       y="182.42969"
       style="display:none"><tspan
         id="SvgjsTspan1059"
         dy="13"
         x="38.359375">Created on svgAvatars.com</tspan></text></g></g></svg>
