<svg id="euBtT1UwSo01" xmlns="http://www.w3.org/2000/svg" xmlns:xlink="http://www.w3.org/1999/xlink" viewBox="0 0 504.123 504.123" shape-rendering="geometricPrecision" text-rendering="geometricPrecision">
<style><![CDATA[
#euBtT1UwSo041_ts {animation: euBtT1UwSo041_ts__ts 2000ms linear infinite normal forwards}@keyframes euBtT1UwSo041_ts__ts { 0% {transform: translate(99.869507px,138.434502px) scale(1,1.003136)} 15% {transform: translate(99.869507px,138.434502px) scale(1.081096,0.348158)} 30% {transform: translate(99.869507px,138.434502px) scale(0.393396,1.62588)} 45% {transform: translate(99.869507px,138.434502px) scale(0.787659,1.893048)} 60% {transform: translate(99.869507px,138.434502px) scale(0.241567,1.827301)} 75% {transform: translate(99.869507px,138.434502px) scale(1.081096,1.213584)} 85% {transform: translate(99.869507px,138.434502px) scale(0.787659,2.199898)} 100% {transform: translate(99.869507px,138.434502px) scale(1.081097,1.820366)}} #euBtT1UwSo048_ts {animation: euBtT1UwSo048_ts__ts 2000ms linear infinite normal forwards}@keyframes euBtT1UwSo048_ts__ts { 0% {transform: translate(74.074068px,84.024464px) scale(1,1)} 20% {transform: translate(74.074068px,84.024464px) scale(1,0.1)} 50% {transform: translate(74.074068px,84.024464px) scale(1,1)} 70% {transform: translate(74.074068px,84.024464px) scale(1,0.1)} 100% {transform: translate(74.074068px,84.024464px) scale(1,1)}} #euBtT1UwSo051_ts {animation: euBtT1UwSo051_ts__ts 2000ms linear infinite normal forwards}@keyframes euBtT1UwSo051_ts__ts { 0% {transform: translate(74px,84px) scale(1,1)} 5% {transform: translate(74px,84px) scale(1,1)} 20% {transform: translate(74px,84px) scale(1,0)} 35% {transform: translate(74px,84px) scale(1,1)} 60% {transform: translate(74px,84px) scale(1,1)} 75% {transform: translate(74px,84px) scale(1,0)} 90% {transform: translate(74px,84px) scale(1,1)} 100% {transform: translate(74px,84px) scale(1,1)}} #euBtT1UwSo061_ts {animation: euBtT1UwSo061_ts__ts 2000ms linear infinite normal forwards}@keyframes euBtT1UwSo061_ts__ts { 0% {transform: translate(74.610315px,84.262812px) scale(1,1)} 20% {transform: translate(74.610315px,84.262812px) scale(1,0.1)} 50% {transform: translate(74.610315px,84.262812px) scale(1,1)} 70% {transform: translate(74.610315px,84.262812px) scale(1,0.1)} 100% {transform: translate(74.610315px,84.262812px) scale(1,1)}} #euBtT1UwSo069_ts {animation: euBtT1UwSo069_ts__ts 2000ms linear infinite normal forwards}@keyframes euBtT1UwSo069_ts__ts { 0% {transform: translate(125.525188px,84.024464px) scale(1,1)} 20% {transform: translate(125.525188px,84.024464px) scale(1,0.05)} 50% {transform: translate(125.525188px,84.024464px) scale(1,1)} 70% {transform: translate(125.525188px,84.024464px) scale(1,0.05)} 100% {transform: translate(125.525188px,84.024464px) scale(1,1)}} #euBtT1UwSo072_ts {animation: euBtT1UwSo072_ts__ts 2000ms linear infinite normal forwards}@keyframes euBtT1UwSo072_ts__ts { 0% {transform: translate(126px,84px) scale(1,1)} 5% {transform: translate(126px,84px) scale(1,1)} 20% {transform: translate(126px,84px) scale(1,0)} 35% {transform: translate(126px,84px) scale(1,1)} 60% {transform: translate(126px,84px) scale(1,1)} 75% {transform: translate(126px,84px) scale(1,0)} 90% {transform: translate(126px,84px) scale(1,1)} 100% {transform: translate(126px,84px) scale(1,1)}} #euBtT1UwSo082_ts {animation: euBtT1UwSo082_ts__ts 2000ms linear infinite normal forwards}@keyframes euBtT1UwSo082_ts__ts { 0% {transform: translate(124.872036px,84.262592px) scale(1,1)} 20% {transform: translate(124.872036px,84.262592px) scale(1,0.05)} 50% {transform: translate(124.872036px,84.262592px) scale(1,1)} 70% {transform: translate(124.872036px,84.262592px) scale(1,0.05)} 100% {transform: translate(124.872036px,84.262592px) scale(1,1)}}
]]></style>
<defs><linearGradient id="euBtT1UwSo043-fill" x1="100" y1="144" x2="100" y2="141" spreadMethod="pad" gradientUnits="userSpaceOnUse" gradientTransform="translate(0 0)"><stop id="euBtT1UwSo043-fill-0" offset="10%" stop-color="#e8b9a0"/><stop id="euBtT1UwSo043-fill-1" offset="100%" stop-color="#e1ac8f"/></linearGradient><radialGradient id="euBtT1UwSo049-fill" cx="0" cy="0" r="13.25" spreadMethod="pad" gradientUnits="userSpaceOnUse" gradientTransform="matrix(-1.0996 0.0423 0.0635 0.9207 73.50946 84.266786)"><stop id="euBtT1UwSo049-fill-0" offset="0%" stop-color="#fff"/><stop id="euBtT1UwSo049-fill-1" offset="54.4%" stop-color="#fdfefe"/><stop id="euBtT1UwSo049-fill-2" offset="74%" stop-color="#f6f8f9"/><stop id="euBtT1UwSo049-fill-3" offset="87.9%" stop-color="#eaeff2"/><stop id="euBtT1UwSo049-fill-4" offset="99.2%" stop-color="#d9e3e8"/><stop id="euBtT1UwSo049-fill-5" offset="100%" stop-color="#d8e2e7"/></radialGradient><radialGradient id="euBtT1UwSo054-fill" cx="0" cy="0" r="59.751" spreadMethod="pad" gradientUnits="userSpaceOnUse" gradientTransform="matrix(0.096 -0.0248 0.0245 0.0961 73.924608 84.019911)"><stop id="euBtT1UwSo054-fill-0" offset="0%" stop-color="#fff"/><stop id="euBtT1UwSo054-fill-1" offset="100%" stop-color="rgba(255,255,255,0)"/></radialGradient><radialGradient id="euBtT1UwSo055-fill" cx="0" cy="0" r="59.745" spreadMethod="pad" gradientUnits="userSpaceOnUse" gradientTransform="matrix(0.0991 0.000886 -0.0011 0.0991 73.925161 84.026609)"><stop id="euBtT1UwSo055-fill-0" offset="0%" stop-color="#fff"/><stop id="euBtT1UwSo055-fill-1" offset="100%" stop-color="rgba(255,255,255,0)"/></radialGradient><linearGradient id="euBtT1UwSo058-fill" x1="70.67" y1="88.268" x2="71.606" y2="87.152" spreadMethod="pad" gradientUnits="userSpaceOnUse" gradientTransform="translate(0 0)"><stop id="euBtT1UwSo058-fill-0" offset="0%" stop-color="#fff"/><stop id="euBtT1UwSo058-fill-1" offset="100%" stop-color="rgba(255,255,255,0)"/></linearGradient><linearGradient id="euBtT1UwSo059-fill" x1="75.212" y1="82.296" x2="74.463" y2="83.189" spreadMethod="pad" gradientUnits="userSpaceOnUse" gradientTransform="translate(0 0)"><stop id="euBtT1UwSo059-fill-0" offset="0%" stop-color="#fff"/><stop id="euBtT1UwSo059-fill-1" offset="100%" stop-color="rgba(255,255,255,0)"/></linearGradient><linearGradient id="euBtT1UwSo060-fill" x1="77.636" y1="79.822" x2="75.91" y2="81.879" spreadMethod="pad" gradientUnits="userSpaceOnUse" gradientTransform="translate(0 0)"><stop id="euBtT1UwSo060-fill-0" offset="0%" stop-color="#fff"/><stop id="euBtT1UwSo060-fill-1" offset="100%" stop-color="rgba(255,255,255,0)"/></linearGradient><radialGradient id="euBtT1UwSo063-fill" cx="0" cy="0" r="17.038" spreadMethod="pad" gradientUnits="userSpaceOnUse" gradientTransform="matrix(0.9884 0.1367 0.1336 -0.7354 76.752853 82.272369)"><stop id="euBtT1UwSo063-fill-0" offset="0%" stop-color="#e1ac8f"/><stop id="euBtT1UwSo063-fill-1" offset="70%" stop-color="rgba(225,172,143,0.3)"/><stop id="euBtT1UwSo063-fill-2" offset="100%" stop-color="rgba(240,199,177,0)"/></radialGradient><radialGradient id="euBtT1UwSo064-fill" cx="0" cy="0" r="26.237" spreadMethod="pad" gradientUnits="userSpaceOnUse" gradientTransform="matrix(0.7183 -0.06 0.0803 0.6143 72.027842 94.367744)"><stop id="euBtT1UwSo064-fill-0" offset="95%" stop-color="rgba(0,0,0,0)"/><stop id="euBtT1UwSo064-fill-1" offset="100%" stop-color="rgba(0,0,0,0.2)"/></radialGradient><radialGradient id="euBtT1UwSo070-fill" cx="0" cy="0" r="13.249" spreadMethod="pad" gradientUnits="userSpaceOnUse" gradientTransform="matrix(1.0996 0.0423 -0.0635 0.9207 126.091403 84.267125)"><stop id="euBtT1UwSo070-fill-0" offset="0%" stop-color="#fff"/><stop id="euBtT1UwSo070-fill-1" offset="54.4%" stop-color="#fdfefe"/><stop id="euBtT1UwSo070-fill-2" offset="74%" stop-color="#f6f8f9"/><stop id="euBtT1UwSo070-fill-3" offset="87.9%" stop-color="#eaeff2"/><stop id="euBtT1UwSo070-fill-4" offset="99.2%" stop-color="#d9e3e8"/><stop id="euBtT1UwSo070-fill-5" offset="100%" stop-color="#d8e2e7"/></radialGradient><radialGradient id="euBtT1UwSo075-fill" cx="0" cy="0" r="59.752" spreadMethod="pad" gradientUnits="userSpaceOnUse" gradientTransform="matrix(0.096 -0.0248 0.0245 0.0961 125.924081 84.019886)"><stop id="euBtT1UwSo075-fill-0" offset="0%" stop-color="#fff"/><stop id="euBtT1UwSo075-fill-1" offset="100%" stop-color="rgba(255,255,255,0)"/></radialGradient><radialGradient id="euBtT1UwSo076-fill" cx="0" cy="0" r="59.747" spreadMethod="pad" gradientUnits="userSpaceOnUse" gradientTransform="matrix(0.0991 0.000886 -0.0011 0.0991 125.924851 84.026408)"><stop id="euBtT1UwSo076-fill-0" offset="0%" stop-color="#fff"/><stop id="euBtT1UwSo076-fill-1" offset="100%" stop-color="rgba(255,255,255,0)"/></radialGradient><linearGradient id="euBtT1UwSo079-fill" x1="122.67" y1="88.268" x2="123.606" y2="87.152" spreadMethod="pad" gradientUnits="userSpaceOnUse" gradientTransform="translate(0 0)"><stop id="euBtT1UwSo079-fill-0" offset="0%" stop-color="#fff"/><stop id="euBtT1UwSo079-fill-1" offset="100%" stop-color="rgba(255,255,255,0)"/></linearGradient><linearGradient id="euBtT1UwSo080-fill" x1="127.212" y1="82.296" x2="126.463" y2="83.189" spreadMethod="pad" gradientUnits="userSpaceOnUse" gradientTransform="translate(0 0)"><stop id="euBtT1UwSo080-fill-0" offset="0%" stop-color="#fff"/><stop id="euBtT1UwSo080-fill-1" offset="100%" stop-color="rgba(255,255,255,0)"/></linearGradient><linearGradient id="euBtT1UwSo081-fill" x1="129.636" y1="79.822" x2="127.91" y2="81.879" spreadMethod="pad" gradientUnits="userSpaceOnUse" gradientTransform="translate(0 0)"><stop id="euBtT1UwSo081-fill-0" offset="0%" stop-color="#fff"/><stop id="euBtT1UwSo081-fill-1" offset="100%" stop-color="rgba(255,255,255,0)"/></linearGradient><radialGradient id="euBtT1UwSo084-fill" cx="0" cy="0" r="17.037" spreadMethod="pad" gradientUnits="userSpaceOnUse" gradientTransform="matrix(-0.9884 0.1367 -0.1336 -0.7354 122.847086 82.272724)"><stop id="euBtT1UwSo084-fill-0" offset="0%" stop-color="#e1ac8f"/><stop id="euBtT1UwSo084-fill-1" offset="70%" stop-color="rgba(225,172,143,0.3)"/><stop id="euBtT1UwSo084-fill-2" offset="100%" stop-color="rgba(240,199,177,0)"/></radialGradient><radialGradient id="euBtT1UwSo085-fill" cx="0" cy="0" r="26.237" spreadMethod="pad" gradientUnits="userSpaceOnUse" gradientTransform="matrix(-0.7183 -0.06 -0.0803 0.6143 127.572736 94.368159)"><stop id="euBtT1UwSo085-fill-0" offset="95%" stop-color="rgba(0,0,0,0)"/><stop id="euBtT1UwSo085-fill-1" offset="100%" stop-color="rgba(0,0,0,0.2)"/></radialGradient><radialGradient id="euBtT1UwSo089-fill" cx="0" cy="0" r="41" spreadMethod="pad" gradientUnits="userSpaceOnUse" gradientTransform="translate(100 114)"><stop id="euBtT1UwSo089-fill-0" offset="0%" stop-color="rgba(255,228,214,0.5)"/><stop id="euBtT1UwSo089-fill-1" offset="90%" stop-color="rgba(240,199,177,0)"/></radialGradient><radialGradient id="euBtT1UwSo090-fill" cx="0" cy="0" r="37" spreadMethod="pad" gradientUnits="userSpaceOnUse" gradientTransform="translate(100 54)"><stop id="euBtT1UwSo090-fill-0" offset="0%" stop-color="rgba(255,228,214,0.5)"/><stop id="euBtT1UwSo090-fill-1" offset="90%" stop-color="rgba(240,199,177,0)"/></radialGradient></defs><g><path d="M351.705,315.242c0,126.33-44.599,84.259-99.643,84.259-55.028,0-99.643,42.071-99.643-84.259c0-72.231,44.631-130.788,99.643-130.788c55.028.008,99.643,58.565,99.643,130.788Z" fill="#232728"/><path d="M228.218,361.913c0,19.503-15.817,124.668-35.336,124.668-19.495,0-35.304-105.173-35.304-124.668s15.817-35.32,35.304-35.32c19.519,0,35.336,15.825,35.336,35.32Z" fill="#232728"/><path d="M346.569,361.913c0,19.503-15.817,124.668-35.336,124.668-19.495,0-35.304-105.173-35.304-124.668s15.817-35.32,35.304-35.32c19.519,0,35.336,15.825,35.336,35.32Z" fill="#232728"/></g><path d="M232.629,487.219c0,14.935-17.802,16.904-39.739,16.904s-39.739-1.961-39.739-16.904s17.802-35.509,39.739-35.509s39.739,20.567,39.739,35.509Z" fill="#8d97a0"/><path d="M232.629,487.219c0,14.935-17.802,16.904-39.739,16.904s-39.739-1.961-39.739-16.904" fill="#79848c"/><path d="M350.988,487.219c0,14.935-17.802,16.904-39.739,16.904s-39.739-1.961-39.739-16.904s17.802-35.509,39.739-35.509s39.739,20.567,39.739,35.509Z" fill="#8d97a0"/><path d="M350.988,487.219c0,14.935-17.802,16.904-39.739,16.904s-39.739-1.961-39.739-16.904" fill="#79848c"/><g><path d="M241.073,203.768c10.027,11.28,3.663,33.304-14.218,49.223-17.881,15.896-114.018,85.024-124.062,73.767-10.012-11.296,69.892-98.714,87.773-114.609c17.865-15.895,40.48-19.653,50.507-8.381Z" fill="#232728"/><path d="M263.05,203.768c-10.027,11.28-3.663,33.304,14.218,49.223c17.881,15.896,114.018,85.024,124.062,73.767c10.012-11.296-69.892-98.714-87.773-114.609-17.865-15.895-40.48-19.653-50.507-8.381Z" fill="#232728"/></g><rect width="41.354" height="141.130997" rx="0" ry="0" transform="translate(231.384995 199.546005)" fill="#e2ded3"/><path d="M231.385,233.669c6.751.622,13.627,1.024,20.693,1.024c7.05,0,13.926-.402,20.661-1.024v-34.123h-41.354v34.123Z" fill="#c6bfaf"/><polygon points="258.182,218.577 268.43,322.465 252.062,334.36 235.693,322.465 245.949,218.577" fill="#444849"/><polyline points="245.949,218.577 258.182,218.577 268.43,322.465 252.062,334.36" fill="#232728"/><path d="M272.935,355.454c0,5.254-4.261,9.515-9.523,9.515h-22.307c-5.262,0-9.523-4.261-9.523-9.515v0c0-5.262,4.261-9.523,9.523-9.523h22.307c5.262,0,9.523,4.261,9.523,9.523v0Z" fill="#8d97a0"/><path d="M263.412,345.931h-22.307c-4.348,0-7.861,2.962-9.003,6.94c1.142,3.97,4.655,6.932,9.003,6.932h22.307c4.348,0,7.861-2.962,9.003-6.932-1.142-3.978-4.655-6.94-9.003-6.94Z" fill="#a7b1b7"/><path d="M315.605,266.508c0,1.457-1.174,2.623-2.623,2.623h-25.6c-1.449,0-2.615-1.166-2.615-2.623v0c0-1.457,1.166-2.623,2.615-2.623h25.6c1.449,0,2.623,1.166,2.623,2.623v0Z" fill="#e2ded3"/><g transform="matrix(2.5 0 0 2.5 192.764297 96.045227)"><g><g transform="matrix(.285702 0 0 0.285702-5.130579-6.722439)"><g><g><g><path d="M100.5,100.5h-1v-1h1Z" fill="#2a232b"/></g></g><g transform="matrix(1.550722 0 0 1.550722-56.990273-70.462296)"><g><g><path d="M47.001,83.231c-1.376-2.453-5.638-8.48-9.98-7.003-2.749.935-3.293,3.993-3.735,6.693-.588,3.591.471,10.694,1.389,13.26.881,2.467,3.533,7.23,5.264,9.045c2.13,2.225,4.775,9.324,5.194,10.061.66,1.162,1.536,2.911,4.122,2.692c2.853-.244,4.584-1.85,5.856-2.121c3.142-.666-4.529-26.242-8.11-32.627Z" fill="#f0c7b1" stroke="#c27b55" stroke-width="1.5"/><path d="M44.197,98.104c-.132-.581.007-1.56.142-2.504.124-.861.24-1.675.169-2.251-.267-2.154-1.773-6.249-2.757-8.467-1.132-2.554-2.963-5.77-5.262-6.599-.95-.343-1.575.067-1.938.484-.266.305-.325.665-.238.707.086.042.285-.254.572-.535.235-.229.579-.426,1.051-.385-.19,1.073-1.167,6.883-.744,10.845.333,3.115,1.593,5.442,1.79,5.791.029.367.077.726.148,1.075.929,4.547,4.971,9.717,6.378,11.409.259.313.531.497.598.423.066-.076-.094-.387-.353-.7-1.388-1.679-5.391-6.831-6.289-11.218-.952-4.656,2.318-11.556,3.048-13.017.371.685.687,1.344.93,1.893.19.431.402.936.619,1.479-.429.762-3.434,6.32-2.338,10.767.406,1.641,2.235,3.755,3.447,4.333.667.32.919.797,1.209,1.349.336.64.718,1.365,1.828,1.892.225.108.429.151.61.151.313,0,.551-.135.725-.293.018.28.017.64.009.97-.012.431.042.783.137.791.094.008.196-.332.207-.76.016-.526.013-1.177-.072-1.488-.248-.917-1.008-1.953-1.813-3.048-.789-1.082-1.607-2.195-1.813-3.094ZM36.95,94.073c-2.177-7.139.656-13.3,1.144-14.28.85.822,1.6,1.919,2.21,2.995-.444.858-3.263,6.483-3.354,11.285Zm9.391,10.442c-1.004-.475-1.339-1.115-1.666-1.733-.293-.559-.598-1.136-1.369-1.505-.168-.081-.352-.203-.542-.343-2.486-6.263.272-9.001.963-9.562.211.766.369,1.468.439,2.031.063.517-.052,1.339-.167,2.134-.142.985-.286,2.004-.137,2.664.226.982,1.069,2.131,1.884,3.242.723.986,1.466,2.003,1.721,2.832-.108.164-.45.561-1.126.24Z" fill="#c27b55"/></g></g><g><g><path d="M152.736,83.231c1.377-2.453,5.639-8.48,9.98-7.003c2.75.935,3.293,3.993,3.736,6.693.588,3.591-.471,10.694-1.389,13.26-.881,2.467-3.533,7.23-5.266,9.045-2.129,2.225-4.775,9.324-5.193,10.061-.658,1.162-1.535,2.911-4.121,2.692-2.854-.244-4.584-1.85-5.857-2.121-3.142-.666,4.53-26.242,8.11-32.627Z" fill="#f0c7b1" stroke="#c27b55" stroke-width="1.5"/><path d="M153.727,101.196c-.805,1.096-1.564,2.131-1.813,3.048-.086.311-.088.962-.072,1.488.012.428.113.768.207.76s.148-.36.137-.791c-.008-.331-.008-.69.01-.97.174.158.412.293.725.293.182,0,.385-.043.609-.151c1.109-.526,1.492-1.252,1.828-1.892.289-.552.543-1.028,1.209-1.349c1.213-.578,3.041-2.692,3.447-4.333c1.096-4.447-1.908-10.005-2.338-10.767.217-.544.43-1.049.619-1.479.244-.549.559-1.208.93-1.893.73,1.46,4,8.361,3.049,13.017-.896,4.387-4.9,9.539-6.289,11.218-.258.313-.418.624-.352.7.066.074.338-.109.598-.423c1.406-1.692,5.449-6.862,6.379-11.409.07-.35.117-.708.146-1.075.197-.349,1.459-2.676,1.791-5.791.422-3.961-.555-9.772-.744-10.845.473-.042.814.156,1.051.385.287.281.486.577.572.535s.027-.402-.238-.707c-.363-.417-.988-.827-1.938-.484-2.299.83-4.131,4.045-5.262,6.599-.984,2.218-2.49,6.313-2.758,8.467-.072.576.045,1.39.17,2.251.135.945.273,1.924.141,2.504-.205.901-1.023,2.014-1.814,3.094Zm5.707-18.409c.611-1.075,1.361-2.173,2.211-2.995.488.98,3.32,7.141,1.145,14.28-.093-4.801-2.911-10.426-3.356-11.285Zm-7.164,21.488c.254-.829.998-1.846,1.721-2.832.816-1.111,1.658-2.26,1.885-3.242.148-.66.004-1.679-.137-2.664-.115-.795-.23-1.617-.166-2.134.068-.563.227-1.266.438-2.031.691.561,3.449,3.299.965,9.562-.191.14-.375.263-.543.343-.771.369-1.074.946-1.369,1.505-.326.618-.662,1.258-1.666,1.733-.677.321-1.019-.076-1.128-.24Z" fill="#c27b55"/></g></g><g><g><path d="M144.004,126.997c-5.003,10.225-20.047,28.437-30.801,33.266-5.366,2.412-21.089,2.53-26.401,0-10.646-5.067-25.765-23.057-30.801-33.266C50.388,115.623,41.15,78.444,41.138,78.39c-1.3-4.988-1.996-10.225-2.004-15.623-.052-34,27.154-61.598,60.772-61.65c33.621-.053,60.913,27.457,60.963,61.456.009,5.4-.669,10.638-1.952,15.631-.016.052-9.317,37.355-14.913,48.793Z" fill="#f0c7b1"/><path d="M110.152,1.982c26.994,6.338,47.097,30.814,47.052,60.039-.009,5.399-.704,10.635-2.004,15.624-.012.054-8.61,37.245-14.13,48.608-4.859,10.004-19.7,27.468-30.067,32.521-2.163,1.055-8.694,1.555-11.001,1.555s-8.837-.5-11-1.555c-10.367-5.053-25.209-22.517-30.067-32.521-5.521-11.363-14.119-48.554-14.13-48.608-1.3-4.988-1.996-10.225-2.004-15.624C42.756,32.796,62.857,8.32,89.853,1.982C61.03,6.877,39.087,32.232,39.134,62.767c.008,5.398.704,10.635,2.004,15.623.012.054,9.232,37.241,14.863,48.607c5.052,10.199,20.207,28.085,30.801,33.266c2.658,1.301,9.305,1.855,12.954,1.853c3.646.003,10.791-.552,13.447-1.853c10.594-5.182,25.748-23.066,30.801-33.266c5.631-11.366,14.852-48.553,14.862-48.607c1.3-4.988,1.996-10.225,2.004-15.623.048-30.535-21.895-55.89-50.718-60.785Z" fill="#e8b9a0"/><path d="M144.004,126.997c-5.003,10.225-20.047,28.437-30.801,33.266-5.366,2.412-21.089,2.53-26.401,0-10.646-5.067-25.765-23.057-30.801-33.266C50.388,115.623,41.15,78.444,41.138,78.39c-1.3-4.988-1.996-10.225-2.004-15.623-.052-34,27.154-61.598,60.772-61.65c33.621-.053,60.913,27.457,60.963,61.456.009,5.4-.669,10.638-1.952,15.631-.016.052-9.317,37.355-14.913,48.793Z" fill="none" stroke="#c27b55" stroke-width="1.5"/></g></g><g id="euBtT1UwSo041_ts" transform="translate(99.869507,138.434502) scale(1,1.003136)"><g transform="translate(-99.869507,-138.434502)"><g><path d="M99.983,144.169c-3.24,0-4.753-2.8-4.753-2.8s4.797.78,9.279-.067c0,0-1.677,2.867-4.526,2.867Z" fill="url(#euBtT1UwSo043-fill)"/><path d="M99.869,138.7c-8.472,0-12.247-2.608-15.517-6h31.035c-2.715,3.472-6.678,6-15.518,6Z" fill="#fff"/><path d="M99.869,138.7c-8.472,0-12.247-2.608-15.517-6h31.035c-2.715,3.472-6.678,6-15.518,6Z" fill="none" stroke="#c27b55" stroke-width="0.75"/></g></g></g><g><g><g id="euBtT1UwSo048_ts" transform="translate(74.074068,84.024464) scale(1,1)"><g transform="translate(-74.074068,-84.024464)"><path d="M76.732,78.383c4.587.679,7.931,3.488,10.773,7.94.004.005.013.004.018.008.007.027.021.053.026.08.255,1.007-.816,1.819-2.155,2.438-4.771.609-9.359,1.489-14.194.87-9.681-1.241-9.855-5.509-10.326-6.629-.252-1.101-.325-1.417-.311-2.473c2.332-1.366,4.043-1.647,5.854-2.005c2.124-.418,6.851-.744,10.315-.229Z" fill="url(#euBtT1UwSo049-fill)"/></g></g><g transform="translate(.25 0)"><g id="euBtT1UwSo051_ts" transform="translate(74,84) scale(1,1)"><g transform="translate(-74,-84)"><g><path d="M80,84c0,3.313-2.687,6-6,6s-6-2.687-6-6v0c0-3.314,2.687-6,6-6c3.313-.001,6,2.686,6,6Z" fill="#4d3623"/><path d="M73.328,78.066c-.023.003-.047.006-.071.009.029.135.057.271.085.406-.006-.137-.009-.277-.014-.415Zm.013.414c.07,1.972.185,3.729.517,4.364.175-.696-.123-2.43-.517-4.364Zm.518,4.365c-.043.167-.108.281-.208.319s-.226-.006-.368-.103c.041.167.037.297-.036.378-.072.081-.201.101-.373.078.113.13.171.249.146.353-.027.104-.134.182-.293.242.159.063.266.141.291.245s-.033.223-.145.352c.17-.021.301.001.371.082.071.081.075.212.035.379.141-.097.265-.139.365-.1.101.038.166.152.206.32.081-.152.171-.249.28-.26.104-.014.216.059.329.188.001-.172.037-.299.127-.36.088-.061.219-.049.379.013-.078-.152-.105-.281-.055-.377.05-.095.173-.146.344-.166-.141-.099-.227-.2-.225-.308c0-.108.084-.209.227-.306-.17-.021-.291-.072-.342-.167-.049-.095-.022-.225.058-.377-.162.06-.292.072-.38.011-.089-.061-.125-.188-.125-.36-.112.128-.224.199-.33.185-.108-.014-.199-.108-.278-.261Zm.607.075c.479-.535,1.021-2.209,1.57-4.104-.854,1.777-1.569,3.386-1.57,4.104Zm1.569-4.104c.06-.122.121-.246.178-.37-.021-.007-.042-.017-.063-.026-.038.133-.076.266-.115.396ZM74.972,83.27c.672-.252,1.931-1.483,3.297-2.905-1.581,1.176-2.963,2.269-3.297,2.905Zm3.297-2.905c.1-.075.203-.15.305-.225-.014-.018-.03-.033-.042-.049-.087.09-.174.183-.263.274Zm-3.015,3.449c.713.088,2.4-.417,4.272-1.041-1.948.308-3.678.633-4.272,1.041Zm4.272-1.04c.11-.016.225-.034.337-.052-.004-.019-.009-.038-.014-.057-.107.036-.217.073-.323.109Zm-4.273,1.653c.59.412,2.318.747,4.262,1.063-1.865-.633-3.548-1.148-4.262-1.063Zm4.263,1.063c.095.033.191.067.285.098.005-.017.009-.033.012-.05-.097-.015-.198-.031-.297-.048Zm-4.551-.52c.333.637,1.708,1.738,3.282,2.924-1.359-1.43-2.609-2.668-3.282-2.924Zm3.283,2.922c.059.062.12.126.179.189.01-.012.019-.021.03-.032-.07-.052-.142-.105-.209-.157ZM74.46,85.317c-.003.719.703,2.331,1.547,4.113-.539-1.897-1.07-3.575-1.547-4.113Zm1.547,4.114c.021.075.043.152.063.229.015-.006.025-.01.039-.014-.033-.072-.068-.146-.102-.215Zm-2.156-4.042c-.336.637-.461,2.39-.542,4.361.404-1.93.713-3.663.542-4.361Zm-.542,4.361c-.017.075-.031.151-.047.228.014.003.025.003.039.005.002-.077.006-.157.008-.233Zm-.029-4.581c-.596.407-1.521,1.904-2.508,3.61c1.254-1.52,2.334-2.912,2.508-3.61Zm-2.508,3.61c-.053.063-.108.13-.162.193.013.008.024.014.038.024.04-.072.083-.145.124-.217Zm2.103-4.069c-.716.083-2.231.978-3.898,2.029c1.818-.762,3.418-1.491,3.898-2.029Zm-3.899,2.031c-.086.036-.174.072-.263.11.006.013.015.027.023.04.081-.049.161-.1.24-.15Zm3.752-2.628c-.671-.257-2.429-.168-4.395-.011c1.964.168,3.722.265,4.395.011Zm-4.395-.011c-.107-.01-.217-.02-.323-.029c0,.019-.002.038,0,.056.109-.01.218-.019.323-.027Zm4.542-.583c-.473-.539-2.069-1.277-3.881-2.051c1.659,1.06,3.169,1.964,3.881,2.051Zm-3.881-2.051c-.104-.067-.209-.134-.315-.201-.009.019-.019.038-.029.055.116.049.232.097.344.146Zm4.29,1.593c-.169-.698-1.241-2.094-2.485-3.623.976,1.712,1.893,3.213,2.485,3.623Zm-2.485-3.623c-.067-.115-.132-.232-.199-.349-.019.013-.039.026-.056.039.084.103.172.207.255.31Z" opacity="0.7" fill="url(#euBtT1UwSo054-fill)"/><path d="M74.886,78.086c-.024-.003-.047-.007-.07-.01-.007.138-.016.277-.024.414.03-.134.063-.27.094-.404Zm-.095.403c-.442,1.922-.787,3.649-.629,4.35.349-.628.509-2.38.629-4.35Zm-.63,4.35c-.084.15-.176.243-.283.254-.106.01-.216-.064-.327-.195-.004.171-.042.297-.133.356-.09.059-.221.045-.38-.021.076.155.101.285.049.378-.053.094-.176.142-.345.158.137.101.22.204.217.312-.002.107-.089.207-.231.302.169.024.29.079.337.174.048.096.018.225-.064.375.161-.057.292-.065.379-.002s.12.19.116.363c.117-.125.229-.196.337-.179.105.014.194.113.27.268.045-.167.113-.279.216-.315.101-.036.225.01.363.111-.036-.167-.029-.299.044-.378s.205-.096.376-.072c-.111-.132-.168-.251-.138-.355.028-.104.136-.18.299-.237-.16-.064-.263-.145-.288-.25-.023-.105.037-.223.154-.349-.172.016-.301-.006-.37-.088-.07-.082-.072-.214-.028-.379-.142.094-.268.134-.367.093-.103-.041-.165-.156-.203-.324Zm.568.231c.601-.394,1.557-1.871,2.578-3.558-1.285,1.495-2.391,2.863-2.578,3.558Zm2.578-3.559c.089-.102.18-.206.268-.311-.019-.013-.036-.028-.055-.042-.071.119-.142.238-.213.353Zm-2.18,4.027c.715-.07,2.25-.934,3.937-1.953-1.833.727-3.45,1.425-3.937,1.953Zm3.936-1.954c.117-.046.235-.092.354-.138-.01-.021-.021-.04-.028-.059-.108.066-.216.133-.326.197Zm-3.804,2.553c.666.27,2.426.218,4.395.101-1.961-.208-3.716-.342-4.395-.101Zm4.395.1c.112.013.226.025.339.037c0-.02.001-.039.002-.058-.114.007-.229.014-.341.021Zm-4.554.492c.462.551,2.046,1.321,3.842,2.129-1.639-1.095-3.131-2.027-3.842-2.129Zm3.841,2.129c.083.057.167.114.25.168.009-.015.017-.03.025-.045-.09-.039-.184-.081-.275-.123ZM74.68,85.179c.156.701,1.2,2.12,2.414,3.674-.943-1.734-1.83-3.254-2.414-3.674Zm2.414,3.671c.042.075.083.153.125.229.012-.009.024-.016.037-.024-.054-.068-.109-.138-.162-.205Zm-2.991-3.467c-.188.693.076,2.433.43,4.373-.031-1.972-.109-3.73-.43-4.373Zm.429,4.373c.001.078.003.158.003.238.014-.002.027-.004.041-.004-.014-.077-.029-.157-.044-.234Zm-1.036-4.462c-.49.528-1.064,2.189-1.652,4.072.889-1.759,1.637-3.353,1.652-4.072Zm-1.653,4.072c-.035.068-.07.138-.104.208.012.006.023.009.036.015.022-.073.046-.15.068-.223ZM73,84.934c-.68.239-1.962,1.446-3.357,2.838c1.607-1.144,3.009-2.209,3.357-2.838Zm-3.356,2.838c-.067.047-.137.098-.205.145.01.011.02.02.029.032.057-.059.117-.117.176-.177Zm3.084-3.387c-.713-.104-2.407.368-4.291.952c1.955-.266,3.688-.556,4.291-.952Zm-4.291.954c-.092.013-.187.024-.283.039.003.015.008.03.013.044.091-.026.181-.056.27-.083Zm4.304-1.567c-.582-.423-2.303-.792-4.242-1.149c1.854.671,3.526,1.22,4.242,1.149Zm-4.242-1.149c-.101-.037-.205-.075-.305-.112-.005.019-.011.037-.015.054.109.019.216.039.32.058Zm4.539.612c-.318-.643-1.668-1.769-3.219-2.986c1.328,1.455,2.553,2.719,3.219,2.986Zm-3.22-2.985c-.083-.091-.167-.183-.251-.275-.014.016-.029.031-.042.046.099.076.198.152.293.229Zm3.733,2.649c.017-.718-.656-2.344-1.464-4.142.5,1.906.998,3.593,1.464,4.142Zm-1.464-4.142c-.034-.128-.067-.259-.101-.389-.021.007-.043.015-.063.023.054.122.11.245.164.366Z" opacity="0.4" fill="url(#euBtT1UwSo055-fill)"/><path d="M76.354,84c0,1.3-1.053,2.353-2.353,2.353-1.299,0-2.354-1.053-2.354-2.353c0-1.299,1.055-2.354,2.354-2.354c1.3,0,2.353,1.054,2.353,2.354Z" fill="#4d3623"/><path d="M76.354,84c0,1.3-1.053,2.353-2.353,2.353-1.299,0-2.354-1.053-2.354-2.353c0-1.299,1.055-2.354,2.354-2.354c1.3,0,2.353,1.054,2.353,2.354Z" opacity="0.9"/><path d="M70.717,86.748c.449-.302,1.059-.18,1.36.268.301.449.182,1.059-.268,1.36-.45.303-1.059.183-1.36-.267-.301-.449-.181-1.06.268-1.361Z" opacity="0.5" fill="url(#euBtT1UwSo058-fill)"/><path d="M75.86,83.672c-.251.374-.969.331-1.606-.096-.638-.427-.95-1.078-.7-1.451v-.001c.25-.374.969-.331,1.605.097.639.426.951,1.076.701,1.451c0,0,0,0,0,0Z" opacity="0.5" fill="url(#euBtT1UwSo059-fill)"/><path d="M78.716,82.673c-.568.873-2.036.925-3.275.117-1.24-.808-1.784-2.17-1.215-3.043.568-.872,2.036-.924,3.275-.117c1.239.809,1.783,2.172,1.215,3.043Z" opacity="0.75" fill="url(#euBtT1UwSo060-fill)"/></g></g></g></g><g id="euBtT1UwSo061_ts" transform="translate(74.610315,84.262812) scale(1,1)"><g transform="translate(-74.610315,-84.262812)"><path d="M55.112,83.583c3.224,11.315,7.475,23.313,17.685,23.669s22.135-7.239,22.29-22.238c.173-16.767-10.474-23.381-20.684-23.737s-24.096,5.437-19.291,22.306Zm5.763-.493c-.252-1.101-.325-1.417-.311-2.473c2.027-1.21,4.04-1.547,5.851-1.905c2.123-.418,6.853-.845,10.317-.329c4.587.679,7.931,3.488,10.773,7.94.004.005.013.004.018.008.007.027.021.053.026.08.255,1.007-.816,1.819-2.155,2.438-4.771.609-9.359,1.489-14.194.87-9.681-1.241-9.855-5.509-10.325-6.629Z" fill="#f0c7b1"/><path d="M74.225,95.171c9.256,1.401,17.847-3.01,19.186-9.859c1.34-6.849-5.072-13.537-14.329-14.94-9.258-1.399-17.845,3.012-19.185,9.862-1.34,6.848,5.07,13.532,14.328,14.937ZM60.563,80.617c2.125-1.141,4.04-1.547,5.851-1.905c2.123-.418,6.853-.845,10.317-.329c4.587.679,7.931,3.488,10.773,7.94.004.005.013.004.018.008.007.027.021.053.026.08.255,1.007-.816,1.819-2.155,2.438-4.771.609-9.359,1.489-14.194.87-9.681-1.241-9.855-5.509-10.326-6.629-.251-1.101-.323-1.418-.31-2.473Z" fill="url(#euBtT1UwSo063-fill)"/><path d="M60.875,83.09c-.252-1.101-.325-1.417-.311-2.473c2.092-1.175,4.04-1.547,5.851-1.905c2.123-.418,6.853-.845,10.317-.329c4.587.679,7.931,3.488,10.773,7.94.004.005.013.004.018.008.007.027.021.053.026.08.255,1.007-.816,1.819-2.155,2.438-4.771.609-9.359,1.489-14.194.87-9.681-1.241-9.855-5.509-10.325-6.629Z" fill="url(#euBtT1UwSo064-fill)"/><path d="M76.327,75.748c3.294.539,6.505,2.054,9.48,3.945.637.404,1.366.865,2.521,1.451-.828-.188-1.594-.617-2.309-1.011.736.698,1.422,1.529,1.982,2.334-2.521-3.159-7.297-5.538-11.36-6.349-3.902-.779-10.989-.264-16.251,2.042c4.818-2.711,11.847-3.08,15.937-2.412Z" fill="#c27b55"/><path d="M87.508,86.277c-2.847-4.34-6.193-7.082-10.781-7.747-4.833-.705-11.271-.221-15.034,1.843-.308.169-1.607,1.249-1.401.117.874-1.167,4.322-2.523,5.993-2.928c18.745-4.543,22.297,10.292,21.223,8.715ZM60.646,82.841c-.716,2.063.861,6.654,10.145,7.503c6.595.602,15.767-1.75,14.634-1.613-4.779.589-9.375,1.449-14.219.839-10.982-1.38-9.738-6.547-10.56-6.729Z" fill="#582311"/></g></g></g></g><g><g><g id="euBtT1UwSo069_ts" transform="translate(125.525188,84.024464) scale(1,1)"><g transform="translate(-125.525188,-84.024464)"><path d="M122.867,78.383c-4.586.679-7.931,3.488-10.773,7.94-.004.005-.012.004-.018.008-.006.027-.02.053-.025.08-.256,1.007.815,1.819,2.154,2.438c4.771.609,9.359,1.489,14.194.87c9.681-1.241,9.855-5.509,10.325-6.629.253-1.101.325-1.417.312-2.473-2.331-1.366-4.043-1.647-5.854-2.005-2.123-.418-6.85-.744-10.315-.229Z" fill="url(#euBtT1UwSo070-fill)"/></g></g><g transform="translate(-.25 0)"><g id="euBtT1UwSo072_ts" transform="translate(126,84) scale(1,1)"><g transform="translate(-126,-84)"><g><path d="M132,84c0,3.313-2.687,6-5.999,6-3.313,0-6.001-2.687-6.001-6v0c0-3.314,2.688-6,6.001-6c3.312-.001,5.999,2.686,5.999,6Z" fill="#4d3623"/><path d="M125.328,78.066c-.023.003-.047.006-.071.009.029.135.058.271.085.406-.006-.137-.009-.277-.014-.415Zm.013.414c.069,1.972.185,3.729.518,4.364.174-.696-.124-2.43-.518-4.364Zm.517,4.365c-.042.167-.108.281-.207.319-.101.038-.226-.006-.367-.103.04.167.036.297-.036.378s-.201.101-.372.078c.112.13.171.249.146.353-.028.104-.134.182-.293.242.158.063.265.141.29.245s-.032.223-.145.352c.17-.021.3.001.37.082.071.081.075.212.035.379.141-.097.266-.139.365-.1.102.038.166.152.206.32.08-.152.172-.249.279-.26.105-.014.217.059.329.188.002-.172.037-.299.128-.36.087-.061.219-.049.379.013-.078-.152-.104-.281-.056-.377.051-.095.174-.146.345-.166-.141-.099-.228-.2-.225-.308-.001-.108.084-.209.227-.306-.171-.021-.291-.072-.342-.167-.05-.095-.022-.225.057-.377-.161.06-.291.072-.38.011s-.124-.188-.125-.36c-.111.128-.224.199-.33.185-.107-.014-.198-.108-.278-.261Zm.608.075c.479-.535,1.021-2.209,1.569-4.104-.853,1.777-1.567,3.386-1.569,4.104Zm1.569-4.104c.06-.122.121-.246.179-.37-.021-.007-.042-.017-.063-.026-.039.133-.077.266-.116.396Zm-1.063,4.454c.673-.252,1.932-1.483,3.298-2.905-1.582,1.176-2.963,2.269-3.298,2.905Zm3.298-2.905c.1-.075.202-.15.305-.225-.015-.018-.03-.033-.042-.049-.088.09-.175.183-.263.274Zm-3.015,3.449c.713.088,2.399-.417,4.271-1.041-1.948.308-3.678.633-4.271,1.041Zm4.271-1.04c.11-.016.225-.034.337-.052-.005-.019-.009-.038-.014-.057-.107.036-.217.073-.323.109Zm-4.273,1.653c.591.412,2.318.747,4.263,1.063-1.866-.633-3.549-1.148-4.263-1.063Zm4.263,1.063c.095.033.19.067.285.098.005-.017.009-.033.013-.05-.098-.015-.2-.031-.298-.048Zm-4.551-.52c.332.637,1.708,1.738,3.282,2.924-1.358-1.43-2.609-2.668-3.282-2.924Zm3.283,2.922c.059.062.119.126.178.189.01-.012.02-.021.031-.032-.07-.052-.142-.105-.209-.157Zm-3.787-2.575c-.003.719.702,2.331,1.547,4.113-.54-1.897-1.071-3.575-1.547-4.113Zm1.547,4.114c.021.075.043.152.063.229.015-.006.026-.01.039-.014-.034-.072-.069-.146-.102-.215Zm-2.157-4.042c-.336.637-.461,2.39-.542,4.361.404-1.93.713-3.663.542-4.361Zm-.542,4.361c-.017.075-.031.151-.047.228.014.003.024.003.039.005.002-.077.006-.157.008-.233Zm-.03-4.581c-.596.407-1.521,1.904-2.508,3.61c1.255-1.52,2.334-2.912,2.508-3.61Zm-2.508,3.61c-.052.063-.107.13-.161.193.013.008.024.014.037.024.041-.072.084-.145.124-.217Zm2.103-4.069c-.716.083-2.23.978-3.897,2.029c1.818-.762,3.418-1.491,3.897-2.029Zm-3.897,2.031c-.087.036-.175.072-.263.11.006.013.014.027.023.04.08-.049.16-.1.24-.15Zm3.752-2.628c-.672-.257-2.43-.168-4.396-.011c1.965.168,3.722.265,4.396.011Zm-4.396-.011c-.106-.01-.217-.02-.322-.029-.001.019-.003.038-.001.056.109-.01.218-.019.323-.027Zm4.543-.583c-.474-.539-2.069-1.277-3.882-2.051c1.659,1.06,3.169,1.964,3.882,2.051Zm-3.882-2.051c-.104-.067-.21-.134-.315-.201-.009.019-.019.038-.028.055.115.049.232.097.343.146Zm4.29,1.593c-.169-.698-1.241-2.094-2.485-3.623.976,1.712,1.893,3.213,2.485,3.623Zm-2.485-3.623c-.067-.115-.133-.232-.198-.349-.019.013-.039.026-.057.039.085.103.172.207.255.31Z" opacity="0.7" fill="url(#euBtT1UwSo075-fill)"/><path d="M126.886,78.086c-.024-.003-.047-.007-.07-.01-.008.138-.016.277-.024.414.029-.134.062-.27.094-.404Zm-.095.403c-.443,1.922-.787,3.649-.63,4.35.35-.628.51-2.38.63-4.35Zm-.63,4.35c-.084.15-.177.243-.283.254-.106.01-.216-.064-.327-.195-.004.171-.042.297-.133.356-.09.059-.221.045-.38-.021.075.155.101.285.049.378-.054.094-.176.142-.346.158.138.101.22.204.217.312-.002.107-.089.207-.23.302.17.024.289.079.337.174.048.096.018.225-.064.375.162-.057.293-.065.38-.002s.12.19.115.363c.117-.125.229-.196.337-.179.105.014.194.113.27.268.046-.167.113-.279.216-.315.101-.036.226.01.363.111-.035-.167-.028-.299.045-.378.072-.079.204-.096.375-.072-.11-.132-.168-.251-.138-.355.027-.104.136-.18.299-.237-.159-.064-.263-.145-.288-.25-.022-.105.038-.223.154-.349-.172.016-.302-.006-.37-.088-.07-.082-.072-.214-.027-.379-.143.094-.269.134-.368.093-.102-.041-.166-.156-.203-.324Zm.568.231c.601-.394,1.557-1.871,2.578-3.558-1.285,1.495-2.391,2.863-2.578,3.558Zm2.578-3.559c.089-.102.18-.206.269-.311-.02-.013-.037-.028-.056-.042-.071.119-.142.238-.213.353Zm-2.18,4.027c.715-.07,2.249-.934,3.937-1.953-1.833.727-3.45,1.425-3.937,1.953Zm3.936-1.954c.116-.046.234-.092.354-.138-.01-.021-.021-.04-.028-.059-.108.066-.216.133-.326.197Zm-3.804,2.553c.666.27,2.426.218,4.396.101-1.963-.208-3.717-.342-4.396-.101Zm4.395.1c.111.013.226.025.339.037.001-.02.001-.039.002-.058-.113.007-.229.014-.341.021Zm-4.554.492c.463.551,2.046,1.321,3.842,2.129-1.639-1.095-3.131-2.027-3.842-2.129Zm3.841,2.129c.082.057.167.114.25.168.009-.015.018-.03.024-.045-.089-.039-.183-.081-.274-.123Zm-4.26-1.679c.155.701,1.199,2.12,2.413,3.674-.943-1.734-1.829-3.254-2.413-3.674Zm2.414,3.671c.041.075.082.153.124.229.012-.009.023-.016.037-.024-.054-.068-.11-.138-.161-.205Zm-2.992-3.467c-.188.693.076,2.433.43,4.373-.031-1.972-.109-3.73-.43-4.373Zm.429,4.373c.001.078.003.158.003.238.015-.002.026-.004.04-.004-.013-.077-.028-.157-.043-.234Zm-1.037-4.462c-.489.528-1.064,2.189-1.652,4.072.89-1.759,1.637-3.353,1.652-4.072Zm-1.652,4.072c-.035.068-.069.138-.104.208.012.006.022.009.035.015.023-.073.047-.15.069-.223ZM125,84.934c-.68.239-1.961,1.446-3.356,2.838c1.606-1.144,3.008-2.209,3.356-2.838Zm-3.356,2.838c-.067.047-.138.098-.205.145.01.011.02.02.029.032.057-.059.118-.117.176-.177Zm3.084-3.387c-.713-.104-2.406.368-4.29.952c1.954-.266,3.688-.556,4.29-.952Zm-4.29.954c-.093.013-.188.024-.283.039.004.015.008.03.013.044.09-.026.18-.056.27-.083Zm4.303-1.567c-.582-.423-2.303-.792-4.242-1.149c1.854.671,3.526,1.22,4.242,1.149Zm-4.242-1.149c-.101-.037-.205-.075-.305-.112-.006.019-.011.037-.015.054.108.019.216.039.32.058Zm4.539.612c-.318-.643-1.669-1.769-3.22-2.986c1.329,1.455,2.554,2.719,3.22,2.986Zm-3.22-2.985c-.083-.091-.167-.183-.251-.275-.015.016-.028.031-.043.046.099.076.2.152.294.229Zm3.733,2.649c.017-.718-.656-2.344-1.464-4.142.501,1.906.998,3.593,1.464,4.142Zm-1.464-4.142c-.034-.128-.067-.259-.102-.389-.021.007-.043.015-.063.023.055.122.111.245.165.366Z" opacity="0.4" fill="url(#euBtT1UwSo076-fill)"/><path d="M128.354,84c0,1.3-1.054,2.353-2.353,2.353-1.3,0-2.354-1.053-2.354-2.353c0-1.299,1.055-2.354,2.354-2.354c1.301,0,2.353,1.054,2.353,2.354Z" fill="#4d3623"/><path d="M128.354,84c0,1.3-1.054,2.353-2.353,2.353-1.3,0-2.354-1.053-2.354-2.353c0-1.299,1.055-2.354,2.354-2.354c1.301,0,2.353,1.054,2.353,2.354Z" opacity="0.9"/><path d="M122.718,86.748c.448-.302,1.059-.18,1.359.268.302.449.183,1.059-.268,1.36-.45.303-1.059.183-1.359-.267-.302-.449-.182-1.06.268-1.361Z" opacity="0.5" fill="url(#euBtT1UwSo079-fill)"/><path d="M127.859,83.672c-.251.374-.969.331-1.605-.096-.638-.427-.95-1.078-.7-1.451l.001-.001c.25-.374.969-.331,1.605.097.638.426.95,1.076.699,1.451c0,0,0,0,0,0Z" opacity="0.5" fill="url(#euBtT1UwSo080-fill)"/><path d="M130.717,82.673c-.569.873-2.036.925-3.276.117-1.239-.808-1.784-2.17-1.215-3.043.568-.872,2.035-.924,3.275-.117c1.239.809,1.783,2.172,1.216,3.043Z" opacity="0.75" fill="url(#euBtT1UwSo081-fill)"/></g></g></g></g><g id="euBtT1UwSo082_ts" transform="translate(124.872036,84.262592) scale(1,1)"><g transform="translate(-124.872036,-84.262592)"><path d="M125.197,61.277c-10.211.356-20.857,6.97-20.685,23.737.154,15,12.079,22.595,22.29,22.238c10.21-.356,16.187-17.323,17.685-23.669c4.03-17.071-9.08-22.662-19.29-22.306Zm3.202,28.442c-4.835.619-9.423-.261-14.194-.87-1.339-.618-2.41-1.43-2.154-2.438.006-.027.02-.053.025-.08.006-.004.014-.003.018-.008c2.843-4.452,6.188-7.261,10.773-7.94c3.465-.516,8.195-.089,10.318.329c1.811.357,3.824.694,5.851,1.905.014,1.055-.059,1.372-.312,2.473-.469,1.12-.644,5.388-10.325,6.629Z" fill="#f0c7b1"/><path d="M139.703,80.234c-1.34-6.85-9.928-11.261-19.186-9.862-9.257,1.403-15.669,8.091-14.328,14.94c1.339,6.849,9.93,11.26,19.186,9.859c9.258-1.405,15.668-8.089,14.328-14.937Zm-.978,2.856c-.47,1.121-.645,5.388-10.325,6.629-4.835.619-9.423-.261-14.194-.87-1.339-.618-2.41-1.43-2.154-2.438.006-.027.02-.053.025-.08.006-.004.014-.003.018-.008c2.843-4.452,6.188-7.261,10.773-7.94c3.465-.516,8.195-.089,10.318.329c1.811.357,3.727.764,5.851,1.905.013,1.055-.059,1.372-.312,2.473Z" fill="url(#euBtT1UwSo084-fill)"/><path d="M138.725,83.09c.253-1.101.325-1.417.312-2.473-2.092-1.175-4.04-1.547-5.851-1.905-2.123-.418-6.854-.845-10.318-.329-4.586.679-7.931,3.488-10.773,7.94-.004.005-.012.004-.018.008-.006.027-.02.053-.025.08-.256,1.007.815,1.819,2.154,2.438c4.771.609,9.359,1.489,14.194.87c9.68-1.241,9.855-5.509,10.325-6.629Z" fill="url(#euBtT1UwSo085-fill)"/><path d="M123.273,75.748c-3.295.539-6.506,2.054-9.48,3.945-.637.404-1.367.865-2.521,1.451.828-.188,1.594-.617,2.309-1.011-.736.698-1.422,1.529-1.982,2.334c2.521-3.159,7.297-5.538,11.359-6.349c3.902-.779,10.989-.264,16.252,2.042-4.819-2.711-11.848-3.08-15.937-2.412Z" fill="#c27b55"/><path d="M133.314,77.563c1.672.405,5.119,1.761,5.994,2.928.205,1.132-1.094.052-1.402-.117-3.764-2.064-10.201-2.548-15.033-1.843-4.588.665-7.936,3.407-10.781,7.747-1.074,1.576,2.478-13.259,21.222-8.715ZM128.395,89.57c-4.844.61-9.439-.25-14.219-.839-1.134-.137,8.038,2.215,14.633,1.613c9.284-.849,10.861-5.44,10.145-7.503-.823.182.422,5.349-10.559,6.729Z" fill="#582311"/></g></g></g></g><g><path d="M141,113.974c.035,22.622-18.292,40.994-40.938,41.025-22.642.037-41.028-18.273-41.063-40.9-.035-22.62,18.292-41.064,40.937-41.1c22.643-.035,41.031,18.35,41.064,40.975Z" fill="url(#euBtT1UwSo089-fill)"/><path d="M137.5,53.999c0,20.711-16.789,37.5-37.499,37.5-20.711,0-37.501-16.789-37.501-37.5s16.79-37.5,37.501-37.5c20.71,0,37.499,16.789,37.499,37.5Z" fill="url(#euBtT1UwSo090-fill)"/></g><g><g><g><path d="M52.488,73.87c7.475-9.383,20.338-7.822,30.878-6.314c2.681.384,5.441.672,8.07,1.336c1.884.475,3.365,2.622,1.851,4.356-.708.825-2.253.672-3.207.652-12.621-.255-26.887-7.513-37.592-.03Z" fill="#2a232b"/></g></g></g><g><g><g><path d="M147.577,73.49c-2.164-1.448-4.454-2.47-7.043-2.889-9.497-1.54-27.586,4.79-32.341,3.45-2.912-.822-2.323-3.739-1.035-4.458.775-.433.99-.422,7.909-1.612c11.757-2.02,24.921-3.626,32.51,5.509Z" fill="#2a232b"/></g></g></g><g><g><path d="M105.07,117.886c1.053,0,1.338.28,1.338.625c0,.347-.328.879-1.338.624-1.109-.276-3.046-.148-3.046-.148s1.994-1.101,3.046-1.101Zm-10.053,0c-1.054.001-1.337.282-1.337.628-.001.345.317.842,1.337.624c1.125-.241,3.046-.149,3.046-.149s-1.992-1.099-3.046-1.103Zm13.592-3.738c0,0,1.458,1.654,1.154,3.403-.294,1.699-3.238,2.447-3.238,2.447s2.044-1.297,2.292-2.873c.116-.735-.208-2.977-.208-2.977Zm-17.992-1.702c0,0-1.063,2.316-.755,3.727.558,2.547,3.625,3.565,3.625,3.565s-1.914-1.747-2.594-3.291c-.744-1.684-.276-4.001-.276-4.001Z" fill="#c27b55"/><path d="M105.019,115.38c1.021-.761,1.124-1.195.912-1.479-.21-.284-.823-.464-1.678.453-.942,1.012-2.991,1.758-2.991,1.758s2.735.031,3.757-.732Z" fill="#ffe4d6"/></g></g><g><g><g><path d="" fill="#2a232b"/></g></g></g><g><g><path d="" fill="#2a232b"/></g></g><g><path d="M44.974,94.895c-2.423-8.815-3.728-16.533-5.54-24.585l.083-.019c-.686-1.689-3.162-15.06-3.185-15.204-2.525-17.77,4.993-18.784,4.84-26.198c3.165,1.585,6.242.799,9.019-1.365-2.918-1.499-1.997-1.736-5.872-4.095c2.731-.472,4.326.165,6.646.454-1.983-1.983-5.875-6.028-8.404-5.492l-.165-.354c3.661-2.857,8.548,3.091,12.954,1.48.133-16.373,24.067-19.773,29.892-22.206c7.755-2.951,15.856-9.441,21.553-10.021-3.225,3.241-5.2,8.449-5.347,12.358c4.698-4.486,5.03-4.355,12.151-12.264c0,6.364-1.763,7.163-4.051,10.898c6.211-4.07,13.955-15.489,25.881-17.235l.131.37c-4.298,2.532-7.624,6.804-9.898,12.708c2.257-2.726,5.451-5.683,8.986-6.218l.133.369c-2.215,1.325-6.554,5.742-7.547,13.138c4.381-4.893,11.35-8.948,16.134-10.48l.187.346c-4.392,3.573-6.153,9.828-7.146,15.146c3.08-4.58,4.872-5.624,8.747-7.548-1.247,1.865-1.166,1.539-2.158,3.566c2.396,6.123,10.313,6.361,11.666,17.059c1.63-1.424,2.277-1.781,4.151-3.092l.282.272c-1.408,2.187-2.569,6.06-3.342,8.652c2.78-2.123,7.073-3.687,10.096-4.778l.211.328c-2.551,2.593-5.648,6.546-6.162,10.834c1-.592,1.048-.524,2.35-1.466c0,3.081.105,2.688.127,4.105c1.257-1.125,1.45-1.282,2.276-2.181-.183,32.362-1.845,25.912-6.317,48.466-.784,3.963-2.171,10.883-3.061,14.207l-6.049,1.039c1.87-22.394-.093-17.512,1.267-31.604c2.012-20.779-14.804-37.812-37.025-32.237-4.496,1.128-22.44,1.127-26.934,0-24.547-6.163-33.391,8.18-36.026,33.278-1.291,12.318-1.607,8.161.267,30.563Z" fill="#2a232b"/><path d="M162.376,34.359c-.021-1.418-.127-1.024-.127-4.105-1.302.941-1.35.874-2.35,1.466.514-4.288,3.611-8.241,6.162-10.834l-.211-.328c-3.022,1.092-7.315,2.655-10.096,4.778.772-2.592,1.934-6.465,3.342-8.652l-.282-.272c-1.874,1.311-2.521,1.668-4.151,3.092-1.353-10.697-9.27-10.936-11.666-17.059.992-2.027.911-1.701,2.158-3.566-3.875,1.924-5.667,2.968-8.747,7.548.993-5.318,2.755-11.573,7.146-15.146l-.187-.346c-4.784,1.532-11.753,5.587-16.134,10.48.993-7.396,5.332-11.813,7.547-13.138l-.133-.369c-3.535.535-6.729,3.493-8.986,6.218c2.274-5.904,5.601-10.176,9.898-12.708l-.131-.37c-11.926,1.746-19.67,13.165-25.881,17.235c2.288-3.735,4.051-4.535,4.051-10.898-7.121,7.909-7.453,7.778-12.151,12.264.146-3.909,2.122-9.118,5.347-12.358-5.696.58-13.797,7.069-21.553,10.021-5.824,2.432-29.758,5.832-29.891,22.206-4.406,1.611-9.293-4.337-12.954-1.48l.165.354c2.529-.537,6.421,3.508,8.404,5.492-2.319-.289-3.915-.926-6.646-.454c3.875,2.359,2.954,2.596,5.872,4.095-2.777,2.164-5.854,2.95-9.019,1.365.153,7.415-7.366,8.429-4.84,26.198.023.144,2.499,13.515,3.185,15.204l-.083.019c1.812,8.052,3.117,15.771,5.54,24.585l.026.003c-.661-16.442-11.02-39.816-4.941-54.788C40.852,38.156,43.92,33,43.92,33s9.627-1.264,10.08-5c0,0-2-1-3-2c2,1,2-2,4-1c0-2-3-1-3-3c2,0,4,0,6,2-1-5,0-10,4-13C72,3,85,4,95,-4c-1,5-2,10-2,15c6-3,8-9,13-13c1,4-1,9-1,13c3-7,7-14,16-16-4,4-4,10-4,15c0-4,4-6,5-9c0,4,0,8,0,12c2-6,6-9,11-11-4,4-3,8-4,13c3-3,7-4,10-7c3,6,1,11,1,17c1-5,6-8,9-12c1,5,1,10,0,15c1-3,3-5,4-8c0,4.86-.668,9.062-1.98,13.142c1.255-1.452,3.304-2.111,3.98-4.142c0,4.325,0,7.904,0,12.027.58-1.192,2.29-1.608,3-3.027-.854,3.413-.254,6.103-.059,9.302.371-1.96,2.258-3.162,2.94-4.967.04-.778.081-1.557.118-2.335.229.912.135,1.664-.118,2.335-.912,17.771-2.593,35.516-6.256,52.628l.648-.111c.89-3.324,2.276-10.244,3.061-14.207c4.473-22.554,6.135-16.104,6.317-48.466-.825.899-1.018,1.056-2.275,2.18Z" fill="#3a353a"/><path d="M167.779,19.695c-4.949.834-8.406,2.438-11.05,4.25.385-1.005,2.193-6.67,4.14-9.05-2.99,1.333-4.72,2.763-5.72,3.51c0-1.032-.398-2.224-.59-2.84-.189-.515-.348-1.117-1.271-2.62-5.171-7.296-5.494-4.244-9.729-9.83.772-1.811,1.889-3.572,3.29-5.03-3.908.555-5.965,2.075-8.44,4.51-.04.04-.07.08-.1.12c1.551-6.126,4.59-11.437,10.56-13.43-7.384-.268-16.525,5.192-21.12,10.64c1.984-6.381,4.646-9.421,8.601-12.25-2.846-.421-5.635.742-7.841,2.58c2.541-4.397,6.317-7.899,9.351-9.53-.431-.01-.94-.04-1.5,0-.777-.199-5.479.566-7.16,1.29-8.329,3.252-14.389,10.822-16.99,13.28c1.916-3.098,2.01-5.298,1.66-8.52-.655.563-11.615,11.055-11.75,11.19.777-4.309,2.245-6.937,5.02-10.79-4.947-.926-17.332,7.217-25.01,9.39-8.044,2.179-28.004,6.723-27.09,22.7-4.295.819-10.584-6.077-13.88-.29c2.646-1.57,6.151,2.21,8.59,4.37-1-.163-4.343-.948-5.96.13c1.894.735,3.55,2.932,5.89,4.1.03.01.06.02.09.04-2.139,1.128-4.667,2.034-6.99,1.39-.35-.1-.58-.16-.58-.17-.27-.12-.56-.24-.87-.38h-.01l-.01-.01c-.13-.07-.26-.14-.4-.21.695,5.608-7.817,10.155-6.88,22.02.385,7.301,4.949,29.508,10.686,44.566l.483.144c-2.392-8.626-3.777-16.74-5.569-24.701-.156,0-3.073-15.044-3.1-15.21-2.506-17.631,4.994-18.91,4.85-25.84c3.121,1.561,6.532.436,9.18-1.73-3.118-1.551-2.453-1.988-5.68-3.95c2.163-.374,4.803.483,6.62.6-2.346-2.346-6.299-6.51-8.98-5.94c3.568-2.785,8.497,3.271,13.03,1.46c0-16.383,23.723-19.635,29.77-22.16c7.271-2.766,16.283-9.476,20.939-9.95-2.44,2.458-5.02,7.901-5.02,12.58c4.834-4.638,5.31-4.615,12.16-12.22c0,6.014-2.247,7.088-4.431,10.97c6.414-3.698,14.179-15.828,26.49-17.63-5.154,3.037-8.435,8.325-10.41,13.97c2.352-3.059,5.8-6.53,9.63-7.11-2.009,1.202-6.861,5.782-7.72,13.93c4.345-5.114,11.586-9.346,16.47-10.91-4.605,3.748-6.368,10.371-7.39,16.22c1.687-2.573,3.357-4.897,5.97-6.54.011-.01.03-.02.04-.02c1.029-.699.76-.509,2.521-1.39-.669,1-.731.87-1.79,3.04c2.426,6.377,10.523,6.413,11.729,17.47c1.857-1.647,2.441-1.944,4.42-3.33-1.542,2.394-2.784,6.768-3.55,9.32c2.905-2.485,8.279-4.33,10.54-5.15-3,3.05-5.913,7.096-6.26,11.36.614-.413,1.394-.74,2.39-1.46c0,2.724.13,2.36.13,4.16.526-.481,1.72-1.51,2.271-2.11-.196,31.716-1.88,25.564-6.311,47.91-1.658,8.376-2.533,12.25-3.081,14.283l.428-.087c3.584-10.751,10.737-35.042,10.414-47.616-.033-4.7-1.059-14.5-1.11-15.5-.021.018-2.084,1.97-2.11,1.97c0-.511-.21-2.685-.21-3.87-.353.271-1.095.778-2.09,1.36c1.379-4.163,3.478-6.75,7.4-11.449Z"/></g><g><g><path d="" fill="#26120b"/></g></g></g></g></g></g></g></svg>
